<?xml version="1.0" encoding="UTF-8"?>
<svg width="20px" height="20px" viewBox="0 0 20 20" version="1.1" xmlns="http://www.w3.org/2000/svg" xmlns:xlink="http://www.w3.org/1999/xlink">
    <!-- Generator: Sketch 63.1 (92452) - https://sketch.com -->
    <title>Icon/system/back</title>
    <desc>Created with Sketch.</desc>
    <g id="Icon/system/back" stroke="none" stroke-width="1" fill="none" fill-rule="evenodd">
        <path d="M8.24324183,3.37313501 L8.33969387,3.45835187 C8.72518106,3.84608946 8.72499181,4.4724111 8.33927036,4.85991567 L4.218,8.99931234 L18,9 C18.5522847,9 19,9.44771525 19,10 C19,10.5522847 18.5522847,11 18,11 L4.385,10.9993123 L8.33927036,14.971772 C8.69532093,15.3294685 8.72287069,15.8906541 8.42180619,16.27984 L8.33969387,16.3733358 L8.24324183,16.4585527 C7.8567965,16.7576047 7.29908129,16.729051 6.94542227,16.3737571 L6.94542227,16.3737571 L1.28941504,10.6916033 C1.07740772,10.4786159 0.981870593,10.1934813 1.0028276,9.91547061 C0.981870593,9.63820631 1.07740772,9.35307172 1.28941504,9.14008433 L6.94542227,3.45793056 C7.29908129,3.10263665 7.8567965,3.07408296 8.24324183,3.37313501 Z" id="Combined-Shape" fill="#000000"></path>
    </g>
</svg>