<?xml version="1.0" encoding="UTF-8"?>
<svg width="30px" height="30px" viewBox="0 0 30 30" version="1.1" xmlns="http://www.w3.org/2000/svg" xmlns:xlink="http://www.w3.org/1999/xlink">
    <!-- Generator: Sketch 63.1 (92452) - https://sketch.com -->
    <title>Icon/attachment/text</title>
    <desc>Created with Sketch.</desc>
    <g id="Icon/attachment/text" stroke="none" stroke-width="1" fill="none" fill-rule="evenodd">
        <rect id="Rectangle" fill="#E9E6FB" x="0" y="0" width="30" height="30" rx="6"></rect>
        <path d="M20.514,5 L26,10.485 L26,24 C26,24.5522847 25.5522847,25 25,25 L9,25 L8.983,24.999 L6,25 C4.8954305,25 4,24.1045695 4,23 L4,16 C4,14.8954305 4.8954305,14 6,14 L8,13.999 L8,6 C8,5.44771525 8.44771525,5 9,5 L20.514,5 Z M18,7 L10,7 L10,13.999 L20,14 C21.1045695,14 22,14.8954305 22,16 L22,23 L24,23 L24,13 L19,13 C18.4477153,13 18,12.5522847 18,12 L18,7 Z M9.55534859,17 L6.09073976,17 C5.7644832,17 5.5,17.2644832 5.5,17.5907398 C5.5,17.9169963 5.7644832,18.1814795 6.09073976,18.1814795 L7.1045769,18.1814795 L7.1045769,22.2248536 C7.1045769,22.6194477 7.42445861,22.9393294 7.81905269,22.9393294 C8.21364677,22.9393294 8.53352847,22.6194477 8.53352847,22.2248536 L8.53352847,18.1814795 L9.55534859,18.1814795 C9.88160515,18.1814795 10.1460883,17.9169963 10.1460883,17.5907398 C10.1460883,17.2644832 9.88160515,17 9.55534859,17 Z M11.770244,17 L11.3634912,17 C11.1005815,17 10.8874511,17.2131304 10.8874511,17.4760401 C10.8874511,17.5543398 10.906765,17.6314306 10.9436813,17.7004814 L12.1098989,19.881852 L10.8331557,22.267182 C10.714141,22.4895362 10.7979143,22.7662704 11.0202686,22.8852851 C11.0865559,22.9207653 11.1605782,22.9393294 11.2357637,22.9393294 L11.6071191,22.9393294 C11.84479,22.9393294 12.0600583,22.7990398 12.1560287,22.5816068 L12.5090474,21.7817988 C12.6447578,21.470463 12.7724854,21.1591272 12.9161788,20.7919106 L12.9481107,20.7919106 C13.1077701,21.1591272 13.2434806,21.470463 13.387174,21.7817988 L13.7751661,22.5971445 C13.8746325,22.806168 14.0854685,22.9393294 14.3169515,22.9393294 L14.7323044,22.9393294 C14.9924442,22.9393294 15.2033291,22.7284445 15.2033291,22.4683048 C15.2033291,22.3893445 15.1834791,22.3116512 15.1456041,22.2423676 L13.8901011,19.9457158 L15.0746198,17.6692189 C15.1913426,17.4448924 15.1041125,17.1684173 14.8797859,17.0516945 C14.8145144,17.0177321 14.7420193,17 14.6684407,17 L14.3180098,17 C14.0737989,17 13.8539541,17.1480141 13.7620843,17.3742859 L13.4829697,18.061735 C13.3632251,18.3411389 13.2354976,18.6524747 13.0997871,19.0356573 L13.0678552,19.0356573 C12.9002129,18.6524747 12.7645024,18.3411389 12.6367749,18.061735 L12.3171659,17.3532683 C12.2201582,17.1382346 12.0061465,17 11.770244,17 Z M19.9092602,17 L16.4446514,17 C16.1183949,17 15.8539117,17.2644832 15.8539117,17.5907398 C15.8539117,17.9169963 16.1183949,18.1814795 16.4446514,18.1814795 L17.4584886,18.1814795 L17.4584886,22.2248536 C17.4584886,22.6194477 17.7783703,22.9393294 18.1729643,22.9393294 C18.5675584,22.9393294 18.8874401,22.6194477 18.8874401,22.2248536 L18.8874401,18.1814795 L19.9092602,18.1814795 C20.2355168,18.1814795 20.5,17.9169963 20.5,17.5907398 C20.5,17.2644832 20.2355168,17 19.9092602,17 Z M20.473,7.788 L20.4737054,10.9097067 L23.595,10.909 L20.473,7.788 Z" id="Combined-Shape" fill="#6C56E5"></path>
    </g>
</svg>