<?xml version="1.0" encoding="UTF-8"?>
<svg width="30px" height="30px" viewBox="0 0 30 30" version="1.1" xmlns="http://www.w3.org/2000/svg" xmlns:xlink="http://www.w3.org/1999/xlink">
    <!-- Generator: Sketch 63.1 (92452) - https://sketch.com -->
    <title>Icon/attachment/pdf</title>
    <desc>Created with Sketch.</desc>
    <g id="Icon/attachment/pdf" stroke="none" stroke-width="1" fill="none" fill-rule="evenodd">
        <rect id="Rectangle" fill="#FDE5E2" x="0" y="0" width="30" height="30" rx="6"></rect>
        <path d="M20.514,5 L26,10.485 L26,24 C26,24.5522847 25.5522847,25 25,25 L9,25 L8.983,24.999 L6,25 C4.8954305,25 4,24.1045695 4,23 L4,16 C4,14.8954305 4.8954305,14 6,14 L8,13.999 L8,6 C8,5.44771525 8.44771525,5 9,5 L20.514,5 Z M18,7 L10,7 L10,13.999 L20,14 C21.1045695,14 22,14.8954305 22,16 L22,23 L24,23 L24,13 L19,13 C18.4477153,13 18,12.5522847 18,12 L18,7 Z M7.57033316,17 L6.5,17 C5.94771525,17 5.5,17.4477153 5.5,18 L5.5,22.1916975 C5.5,22.5837876 5.81785178,22.9016393 6.20994183,22.9016393 C6.60203188,22.9016393 6.91988366,22.5837876 6.91988366,22.1916975 L6.91988366,20.9423585 L7.60999471,20.9423585 C8.85536753,20.9423585 9.94209413,20.3236383 9.94209413,18.9196192 C9.94209413,17.460074 8.87123215,17 7.57033316,17 Z M12.6470122,17 L11.9494976,17 C11.3972129,17 10.9494976,17.4477153 10.9494976,18 L10.9494976,21.9016393 C10.9494976,22.4539241 11.3972129,22.9016393 11.9494976,22.9016393 L12.7263353,22.9016393 C14.4476467,22.9016393 15.6374934,21.973559 15.6374934,19.9190904 C15.6374934,17.8646219 14.4476467,17 12.6470122,17 Z M19.913009,17 L17.7321523,17 C17.1798676,17 16.7321523,17.4477153 16.7321523,18 L16.7321523,22.1916975 C16.7321523,22.5837876 17.0500041,22.9016393 17.4420941,22.9016393 C17.8341842,22.9016393 18.152036,22.5837876 18.152036,22.1916975 L18.152036,20.648863 L19.5758858,20.648863 C19.9022624,20.648863 20.1668429,20.3842825 20.1668429,20.0579059 C20.1668429,19.7315292 19.9022624,19.4669487 19.5758858,19.4669487 L18.152036,19.4669487 L18.152036,18.173982 L19.913009,18.173982 C20.2371952,18.173982 20.5,17.9111772 20.5,17.586991 C20.5,17.2628048 20.2371952,17 19.913009,17 Z M12.5597567,18.1263882 C13.5116341,18.1263882 14.1858805,18.5150714 14.1858805,19.9190904 C14.1858805,21.3231095 13.5116341,21.7593866 12.5597567,21.7593866 L12.3693813,21.7593866 L12.3693813,18.1263882 L12.5597567,18.1263882 Z M7.49894236,18.1184558 C8.1811211,18.1184558 8.56187203,18.3246959 8.56187203,18.9196192 C8.56187203,19.4986779 8.22871497,19.8239027 7.53860391,19.8239027 L6.91988366,19.8239027 L6.91988366,18.1184558 L7.49894236,18.1184558 Z M20.473,7.788 L20.4737054,10.9097067 L23.595,10.909 L20.473,7.788 Z" id="Combined-Shape" fill="#F15642"></path>
    </g>
</svg>