<?xml version="1.0" encoding="UTF-8"?>
<svg width="30px" height="30px" viewBox="0 0 30 30" version="1.1" xmlns="http://www.w3.org/2000/svg" xmlns:xlink="http://www.w3.org/1999/xlink">
    <!-- Generator: Sketch 63.1 (92452) - https://sketch.com -->
    <title>Icon/attachment/topoint</title>
    <desc>Created with Sketch.</desc>
    <g id="Icon/attachment/topoint" stroke="none" stroke-width="1" fill="none" fill-rule="evenodd">
        <rect id="Rectangle" fill="#FCE5EA" x="0" y="0" width="30" height="30" rx="6"></rect>
        <path d="M24.0049751,5 C24.5545122,5 25,5.44548781 25,5.99502488 L25,24.0049751 C25,24.5545122 24.5545122,25 24.0049751,25 L9.08457711,25 C8.53229236,25 8.08457711,24.5522847 8.08457711,24 C8.08457711,23.4477153 8.53229236,23 9.08457711,23 L23.0095025,23 L23.0095025,7 L7.08950249,7 L7.08955224,13.0049751 C7.08955224,13.5545122 6.64406443,14 6.09452736,14 C5.5449903,14 5.09950249,13.5545122 5.09950249,13.0049751 L5.09950249,5.99502488 C5.09950249,5.44548781 5.5449903,5 6.09452736,5 L24.0049751,5 Z M8.34577114,14.9 C10.7518073,14.9 12.1641791,15.8495245 12.1641791,17.9274194 C12.1641791,19.8948479 10.7348424,21.0344854 8.62826681,21.1082752 L8.4079602,21.1120968 L7.18905473,21.112 L7.18905473,23.5 C7.18905473,24.0265115 6.8209828,24.4666253 6.32932918,24.5746288 L6.21378818,24.5935453 L6.09452736,24.6 C5.53033598,24.6 5.0658469,24.1709893 5.00642254,23.6198571 L5,23.5 L5,16 C5,15.4329877 5.42687632,14.9661761 5.97526655,14.9064547 L6.09452736,14.9 L8.34577114,14.9 Z M14.0547264,12 C14.6042634,12 15.0497512,12.4454878 15.0497512,12.9950249 L15.0497512,20.0049751 C15.0497512,20.5545122 14.6042634,21 14.0547264,21 C13.5051893,21 13.0597015,20.5545122 13.0597015,20.0049751 L13.0597015,12.9950249 C13.0597015,12.4454878 13.5051893,12 14.0547264,12 Z M20.0248756,15 C20.5744127,15 21.0199005,15.4454878 21.0199005,15.9950249 L21.0199005,20.0049751 C21.0199005,20.5545122 20.5744127,21 20.0248756,21 C19.4753386,21 19.0298507,20.5545122 19.0298507,20.0049751 L19.0298507,15.9950249 C19.0298507,15.4454878 19.4753386,15 20.0248756,15 Z M17.039801,10 C17.5893381,10 18.0348259,10.4454878 18.0348259,10.9950249 L18.0348259,20.0049751 C18.0348259,20.5545122 17.5893381,21 17.039801,21 C16.4902639,21 16.0447761,20.5545122 16.0447761,20.0049751 L16.0447761,10.9950249 C16.0447761,10.4454878 16.4902639,10 17.039801,10 Z M7.96813036,16.8056452 L7.18905473,16.805 L7.18905473,19.206 L8.04023361,19.2064516 C9.22165602,19.2064516 9.80099502,18.7659443 9.80099502,17.9274194 C9.80099502,17.1768706 9.29573668,16.8416141 8.16278807,16.808403 L7.96813036,16.8056452 Z" id="Combined-Shape" fill="#EC5071"></path>
    </g>
</svg>