<?xml version="1.0" encoding="UTF-8"?>
<svg width="20px" height="20px" viewBox="0 0 20 20" version="1.1" xmlns="http://www.w3.org/2000/svg" xmlns:xlink="http://www.w3.org/1999/xlink">
    <!-- Generator: Sketch 63.1 (92452) - https://sketch.com -->
    <title>Icon/system/download</title>
    <desc>Created with Sketch.</desc>
    <g id="Icon/system/download" stroke="none" stroke-width="1" fill="none" fill-rule="evenodd">
        <path d="M16,16.1956871 C16.5522847,16.1956871 17,16.6434023 17,17.1956871 C17,17.7479718 16.5522847,18.1956871 16,18.1956871 L4,18.1956871 C3.44771525,18.1956871 3,17.7479718 3,17.1956871 C3,16.6434023 3.44771525,16.1956871 4,16.1956871 L16,16.1956871 Z M9.89864423,3 C10.450929,3 10.8986442,3.44771525 10.8986442,4 L10.898,11.708 L14.0387453,8.47741844 C14.3960819,8.10957186 14.9674919,8.07538572 15.3644726,8.38049047 L15.4528103,8.45692474 C15.8206569,8.81426141 15.8548431,9.3856714 15.5497383,9.78265209 L15.473304,9.8709898 L10.595292,14.8924727 C10.2287396,15.2698061 9.63887389,15.2949617 9.24254637,14.9679394 L9.16073328,14.8924727 L4.28272128,9.8709898 C3.89789717,9.47484734 3.90707251,8.84174885 4.30321497,8.45692474 C4.67106155,8.09958807 5.24322225,8.08197541 5.63119445,8.39845629 L5.71728004,8.47741844 L8.898,11.751 L8.89864423,4 C8.89864423,3.44771525 9.34635948,3 9.89864423,3 Z" id="Combined-Shape" fill="#75757f"></path>
    </g>
</svg>