<?xml version="1.0" encoding="UTF-8"?>
<svg width="30px" height="30px" viewBox="0 0 30 30" version="1.1" xmlns="http://www.w3.org/2000/svg" xmlns:xlink="http://www.w3.org/1999/xlink">
    <!-- Generator: Sketch 63.1 (92452) - https://sketch.com -->
    <title>Icon/attachment/toword</title>
    <desc>Created with Sketch.</desc>
    <g id="Icon/attachment/toword" stroke="none" stroke-width="1" fill="none" fill-rule="evenodd">
        <rect id="Rectangle" fill="#E2E7F7" x="0" y="0" width="30" height="30" rx="6"></rect>
        <path d="M6.15210716,16.840796 C6.65761832,16.840796 7.09206059,17.1823368 7.21659502,17.6591946 L7.241134,17.7811088 L7.63779074,20.5544501 L7.904,22.5930348 L8.04885045,21.8318332 L8.3021057,20.5450097 L8.96243996,17.6898584 C9.06779244,17.2343356 9.45014133,16.9004897 9.90786865,16.8480121 L10.0344208,16.840796 L10.1027104,16.840796 C10.5703115,16.840796 10.9816745,17.1340179 11.1373029,17.5633799 L11.1732566,17.6837359 L11.8529757,20.5475672 C11.8802183,20.6813653 11.9065079,20.8140413 11.9342134,20.9576441 L11.9771297,21.1827497 L12.24,22.6149254 L12.4948588,20.553013 L12.9002215,17.7778948 C12.9727659,17.281255 13.3733446,16.903014 13.8642997,16.8477617 L13.9887838,16.840796 L14.0618102,16.840796 C14.1138599,16.840796 14.1658084,16.8453601 14.2170528,16.8544352 C14.6617254,16.9331843 14.9694576,17.3292639 14.9467344,17.7667409 L14.9340571,17.8768129 L13.8214051,24.0972628 C13.7351682,24.5793832 13.3396492,24.9406314 12.8599676,24.9933552 L12.7384241,25 L11.9027279,25 C11.4232006,25 11.0040149,24.6918736 10.8575217,24.2467721 L10.8267024,24.1327421 L10.2554572,21.4549769 L10.1605887,20.9936672 L10.1605887,20.9936672 L10.0746017,20.5253482 L10,20.0666667 L9.8644559,20.8717768 L9.7557814,21.4540288 L9.20273749,24.126238 C9.10555052,24.595828 8.71454728,24.9429899 8.24440524,24.9936208 L8.12534524,25 L7.33091751,25 C6.84235011,25 6.41772223,24.680422 6.27851303,24.2241381 L6.24978513,24.1073249 L5.08796675,17.9463213 C5.07726324,17.8895617 5.07187684,17.8319362 5.07187684,17.774186 C5.07187684,17.2955102 5.43400452,16.900993 5.90053652,16.8470756 L6.00993377,16.840796 L6.15210716,16.840796 Z M24.0049751,5 C24.5152595,5 24.935828,5.38411959 24.9933057,5.87898395 C24.9977157,5.9216357 25,5.96055109 25,6 L25,23.9054726 C25,24.4550097 24.5545122,24.9004975 24.0049751,24.9004975 L15.9950249,24.9004975 C15.4454878,24.9004975 15,24.4550097 15,23.9054726 C15,23.3559356 15.4454878,22.9104478 15.9950249,22.9104478 L23,22.91 L23,6.99 L7,6.99 L7,14.9452736 C7,15.4975584 6.55228475,15.9452736 6,15.9452736 C5.44771525,15.9452736 5,15.4975584 5,14.9452736 L5,5.99502488 L5.003,5.94 L5.00672773,5.88337887 L5,5.99502488 C5,5.44548781 5.44548781,5 5.99502488,5 L24.0049751,5 Z M20.0049751,15.9452736 C20.5545122,15.9452736 21,16.3907614 21,16.9402985 C21,17.4898356 20.5545122,17.9353234 20.0049751,17.9353234 L16.9950249,17.9353234 C16.4454878,17.9353234 16,17.4898356 16,16.9402985 C16,16.3907614 16.4454878,15.9452736 16.9950249,15.9452736 L20.0049751,15.9452736 Z M20.0049751,12.960199 C20.5545122,12.960199 21,13.4056868 21,13.9552239 C21,14.5047609 20.5545122,14.9502488 20.0049751,14.9502488 L9.99502488,14.9502488 C9.44548781,14.9502488 9,14.5047609 9,13.9552239 C9,13.4056868 9.44548781,12.960199 9.99502488,12.960199 L20.0049751,12.960199 Z M20.0049751,9.97512438 C20.5545122,9.97512438 21,10.4206122 21,10.9701493 C21,11.5196863 20.5545122,11.9651741 20.0049751,11.9651741 L9.99502488,11.9651741 C9.44548781,11.9651741 9,11.5196863 9,10.9701493 C9,10.4206122 9.44548781,9.97512438 9.99502488,9.97512438 L20.0049751,9.97512438 Z" id="Combined-Shape" fill="#3C5ACA"></path>
    </g>
</svg>