<?xml version="1.0" encoding="UTF-8"?>
<svg width="30px" height="30px" viewBox="0 0 30 30" version="1.1" xmlns="http://www.w3.org/2000/svg" xmlns:xlink="http://www.w3.org/1999/xlink">
    <!-- Generator: Sketch 63.1 (92452) - https://sketch.com -->
    <title>Icon/attachment/tohangul</title>
    <desc>Created with Sketch.</desc>
    <g id="Icon/attachment/tohangul" stroke="none" stroke-width="1" fill="none" fill-rule="evenodd">
        <rect id="Rectangle" fill="#F0E6F7" x="0" y="0" width="30" height="30" rx="6"></rect>
        <path d="M11,17 C11.5522847,17 12,17.4477153 12,18 L12,24 C12,24.5522847 11.5522847,25 11,25 C10.4477153,25 10,24.5522847 10,24 L10,22 L7,22 L7,24 C7,24.5522847 6.55228475,25 6,25 C5.44771525,25 5,24.5522847 5,24 L5,18 C5,17.4477153 5.44771525,17 6,17 C6.55228475,17 7,17.4477153 7,18 L7,20 L7,20 L10,20 L10,18 C10,17.4477153 10.4477153,17 11,17 Z M24,5 C24.5522847,5 25,5.44771525 25,6 L25,24 C25,24.5128358 24.6139598,24.9355072 24.1166211,24.9932723 L24,25 L15,25 C14.4477153,25 14,24.5522847 14,24 C14,23.4477153 14.4477153,23 15,23 L23,23 L23,7 L7,7 L7,15 C7,15.5522847 6.55228475,16 6,16 C5.44771525,16 5,15.5522847 5,15 L5,6 C5,5.44771525 5.44771525,5 6,5 L24,5 Z M14.8,18 C14.3581722,18 14,17.5522847 14,17 C14,16.4477153 14.3581722,16 14.8,16 L20,16 C20.5522847,16 21,16.4477153 21,17 C21,17.5522847 20.5522847,18 20,18 L14.8,18 Z M20,13 C20.5522847,13 21,13.4477153 21,14 C21,14.5522847 20.5522847,15 20,15 L10,15 C9.44771525,15 9,14.5522847 9,14 C9,13.4477153 9.44771525,13 10,13 L20,13 Z M20,10 C20.5522847,10 21,10.4477152 21,11 C21,11.5522848 20.5522847,12 20,12 L10,12 C9.44771525,12 9,11.5522848 9,11 C9,10.4477152 9.44771525,10 10,10 L20,10 Z" id="Combined-Shape" fill="#9A55C6"></path>
    </g>
</svg>