<?xml version="1.0" encoding="UTF-8"?>
<svg width="30px" height="30px" viewBox="0 0 30 30" version="1.1" xmlns="http://www.w3.org/2000/svg" xmlns:xlink="http://www.w3.org/1999/xlink">
    <!-- Generator: Sketch 63.1 (92452) - https://sketch.com -->
    <title>Icon/attachment/audio</title>
    <desc>Created with Sketch.</desc>
    <g id="Icon/attachment/audio" stroke="none" stroke-width="1" fill="none" fill-rule="evenodd">
        <rect id="Rectangle" fill="#D8EDEA" x="0" y="0" width="30" height="30" rx="6"></rect>
        <path d="M23.9444444,5 C24.5274117,5 25,5.44771525 25,6 L25,24 C25,24.5522847 24.5274117,25 23.9444444,25 L7.05555556,25 C6.47258832,25 6,24.5522847 6,24 L6,6 C6,5.44771525 6.47258832,5 7.05555556,5 L23.9444444,5 Z M23,7 L8,7 L8,23 L23,23 L23,7 Z M20.7853675,10.7853223 L20.7932001,10.844 L20.8,10.8447279 L20.8,17.9534184 C20.8,19.0751387 19.8150264,19.9844728 18.6,19.9844728 C17.3849736,19.9844728 16.4,19.0751387 16.4,17.9534184 C16.4,16.831698 17.3849736,15.9223639 18.6,15.9223639 C18.7897468,15.9223639 18.9738831,15.9445408 19.1495336,15.9862402 L19.1492001,12.388 L14.1992001,13.241 L14.199,18.9441943 L14.2,18.9689456 C14.2,20.0418955 13.2988144,20.920526 12.157115,20.9949004 L12,21 C10.7849736,21 9.8,20.090666 9.8,18.9689456 C9.8,17.8472252 10.7849736,16.9378911 12,16.9378911 C12.1897468,16.9378911 12.3738831,16.960068 12.5495336,17.0017675 L12.5483945,12.0553381 C12.500433,11.7534592 12.6280458,11.4374906 12.9000182,11.2586092 C12.991401,11.1985051 13.0941078,11.15772 13.2018288,11.1387596 L19.6659467,10.000988 C20.1916542,9.90845641 20.692836,10.2596148 20.7853675,10.7853223 Z" id="Combined-Shape" fill="#00887A" fill-rule="nonzero"></path>
    </g>
</svg>