<?xml version="1.0" encoding="UTF-8"?>
<svg width="30px" height="30px" viewBox="0 0 30 30" version="1.1" xmlns="http://www.w3.org/2000/svg" xmlns:xlink="http://www.w3.org/1999/xlink">
    <!-- Generator: Sketch 63.1 (92452) - https://sketch.com -->
    <title>Icon/attachment/etc</title>
    <desc>Created with Sketch.</desc>
    <g id="Icon/attachment/etc" stroke="none" stroke-width="1" fill="none" fill-rule="evenodd">
        <rect id="Rectangle" fill="#DCF3E8" x="0" y="0" width="30" height="30" rx="6"></rect>
        <path d="M20.4285714,16 C22.6377104,16 24.4285714,17.790861 24.4285714,20 C24.4285714,22.209139 22.6377104,24 20.4285714,24 C18.2194324,24 16.4285714,22.209139 16.4285714,20 C16.4285714,17.790861 18.2194324,16 20.4285714,16 Z M9.13175686,16.5038611 C9.515651,15.8320463 10.484349,15.8320463 10.8682431,16.5038611 L10.8682431,16.5038611 L14.2968146,22.5038611 C14.6777613,23.1705178 14.1963941,24 13.4285714,24 L13.4285714,24 L6.57142857,24 C5.8036059,24 5.32223871,23.1705178 5.70318543,22.5038611 L5.70318543,22.5038611 Z M20.4285714,18 C19.3240019,18 18.4285714,18.8954305 18.4285714,20 C18.4285714,21.1045695 19.3240019,22 20.4285714,22 C21.5331409,22 22.4285714,21.1045695 22.4285714,20 C22.4285714,18.8954305 21.5331409,18 20.4285714,18 Z M10,19.016 L8.294,22 L11.705,22 L10,19.016 Z M10,6 C12.209139,6 14,7.790861 14,10 C14,12.209139 12.209139,14 10,14 C7.790861,14 6,12.209139 6,10 C6,7.790861 7.790861,6 10,6 Z M22.4285714,6 C23.5331409,6 24.4285714,6.8954305 24.4285714,8 L24.4285714,8 L24.4285714,12 C24.4285714,13.1045695 23.5331409,14 22.4285714,14 L22.4285714,14 L18.4285714,14 C17.3240019,14 16.4285714,13.1045695 16.4285714,12 L16.4285714,12 L16.4285714,8 C16.4285714,6.8954305 17.3240019,6 18.4285714,6 L18.4285714,6 Z M10,8 C8.8954305,8 8,8.8954305 8,10 C8,11.1045695 8.8954305,12 10,12 C11.1045695,12 12,11.1045695 12,10 C12,8.8954305 11.1045695,8 10,8 Z M22.4285714,8 L18.4285714,8 L18.4285714,12 L22.4285714,12 L22.4285714,8 Z" id="Combined-Shape" fill="#16AC66"></path>
    </g>
</svg>