<?xml version="1.0" encoding="UTF-8"?>
<svg width="30px" height="30px" viewBox="0 0 30 30" version="1.1" xmlns="http://www.w3.org/2000/svg" xmlns:xlink="http://www.w3.org/1999/xlink">
    <!-- Generator: Sketch 63.1 (92452) - https://sketch.com -->
    <title>Icon/attachment/tocell</title>
    <desc>Created with Sketch.</desc>
    <g id="Icon/attachment/tocell" stroke="none" stroke-width="1" fill="none" fill-rule="evenodd">
        <rect id="Rectangle" fill="#DEF3EE" x="0" y="0" width="30" height="30" rx="6"></rect>
        <path d="M9.38537421,15.6930693 C10.4101858,15.6930693 11.1875535,16.0222259 11.921434,16.6932404 L11.921434,16.6932404 L11.9877307,16.7730944 C12.0819483,16.9158969 12.0998952,17.0969047 12.0346107,17.2543773 L12.0346107,17.2543773 L12.0139191,17.3074671 C11.955871,17.4793839 11.6726721,17.8179189 11.4387604,18.0547468 C11.3931558,18.10092 11.3101966,18.1559994 11.174027,18.2350805 C10.9538944,18.3629785 10.6778253,18.3426283 10.4831865,18.1872155 L10.4831865,18.1872155 L10.3647489,18.0978671 C10.0956309,17.9082311 9.88448301,17.8551275 9.4207603,17.8551275 C8.34796502,17.8551275 7.55459131,18.8240651 7.55459131,20.3234494 C7.55459131,21.9072771 8.26196323,22.8263992 9.39716957,22.8263992 C9.72475933,22.8263992 9.89149974,22.7977686 10.0597425,22.721441 C10.1131231,22.6972236 10.1695928,22.6673357 10.2499061,22.6214305 L10.2499061,22.6214305 L10.5045233,22.4743722 L10.6127182,22.408523 C10.9462473,22.2365682 11.3524814,22.2941493 11.6209984,22.5596513 L11.6209984,22.5596513 L11.7992211,22.7284783 L12.0911072,23.0659635 L12.1234038,23.1132942 C12.3071181,23.3992776 12.2665269,23.7746635 12.0229569,24.0176664 L12.0229569,24.0176664 L11.9005694,24.1347167 C11.2500152,24.7304219 10.4877491,25 9.31460202,25 C6.96553271,25 5,23.1481427 5,20.3927051 C5,17.5794802 6.88786053,15.6930693 9.38537421,15.6930693 Z M24.009901,5 C24.5567176,5 25,5.44328243 25,5.99009901 L25,23.8118812 C25,24.3196394 24.617782,24.7381259 24.1253675,24.7953191 L24.009901,24.8019802 L14.1089109,24.8019802 C13.5620943,24.8019802 13.1188119,24.3586978 13.1188119,23.8118812 C13.1188119,23.2650646 13.5620943,22.8217822 14.1089109,22.8217822 L23.0190198,22.821 L23.0190198,6.98 L7.1780198,6.98 L7.17821782,14.9009901 C7.17821782,15.4478067 6.7349354,15.8910891 6.18811881,15.8910891 C5.64130223,15.8910891 5.1980198,15.4478067 5.1980198,14.9009901 L5.1980198,5.99009901 C5.1980198,5.44328243 5.64130223,5 6.18811881,5 L24.009901,5 Z M14.1089109,14.9009901 C14.6557275,14.9009901 15.0990099,15.3442725 15.0990099,15.8910891 C15.0990099,16.4379057 14.6557275,16.8811881 14.1089109,16.8811881 C13.5620943,16.8811881 13.1188119,16.4379057 13.1188119,15.8910891 C13.1188119,15.3442725 13.5620943,14.9009901 14.1089109,14.9009901 Z M17.0792079,14.9009901 C17.6260245,14.9009901 18.0693069,15.3442725 18.0693069,15.8910891 C18.0693069,16.4379057 17.6260245,16.8811881 17.0792079,16.8811881 C16.5323913,16.8811881 16.0891089,16.4379057 16.0891089,15.8910891 C16.0891089,15.3442725 16.5323913,14.9009901 17.0792079,14.9009901 Z M20.049505,14.9009901 C20.5963215,14.9009901 21.039604,15.3442725 21.039604,15.8910891 C21.039604,16.4379057 20.5963215,16.8811881 20.049505,16.8811881 C19.5026884,16.8811881 19.0594059,16.4379057 19.0594059,15.8910891 C19.0594059,15.3442725 19.5026884,14.9009901 20.049505,14.9009901 Z M14.1089109,11.9306931 C14.6557275,11.9306931 15.0990099,12.3739755 15.0990099,12.9207921 C15.0990099,13.4676087 14.6557275,13.9108911 14.1089109,13.9108911 C13.5620943,13.9108911 13.1188119,13.4676087 13.1188119,12.9207921 C13.1188119,12.3739755 13.5620943,11.9306931 14.1089109,11.9306931 Z M11.1386139,11.9306931 C11.6854304,11.9306931 12.1287129,12.3739755 12.1287129,12.9207921 C12.1287129,13.4676087 11.6854304,13.9108911 11.1386139,13.9108911 C10.5917973,13.9108911 10.1485149,13.4676087 10.1485149,12.9207921 C10.1485149,12.3739755 10.5917973,11.9306931 11.1386139,11.9306931 Z M17.0792079,11.9306931 C17.6260245,11.9306931 18.0693069,12.3739755 18.0693069,12.9207921 C18.0693069,13.4676087 17.6260245,13.9108911 17.0792079,13.9108911 C16.5323913,13.9108911 16.0891089,13.4676087 16.0891089,12.9207921 C16.0891089,12.3739755 16.5323913,11.9306931 17.0792079,11.9306931 Z M20.049505,11.9306931 C20.5963215,11.9306931 21.039604,12.3739755 21.039604,12.9207921 C21.039604,13.4676087 20.5963215,13.9108911 20.049505,13.9108911 C19.5026884,13.9108911 19.0594059,13.4676087 19.0594059,12.9207921 C19.0594059,12.3739755 19.5026884,11.9306931 20.049505,11.9306931 Z M14.1089109,8.96039604 C14.6557275,8.96039604 15.0990099,9.40367847 15.0990099,9.95049505 C15.0990099,10.4973116 14.6557275,10.9405941 14.1089109,10.9405941 C13.5620943,10.9405941 13.1188119,10.4973116 13.1188119,9.95049505 C13.1188119,9.40367847 13.5620943,8.96039604 14.1089109,8.96039604 Z M11.1386139,8.96039604 C11.6854304,8.96039604 12.1287129,9.40367847 12.1287129,9.95049505 C12.1287129,10.4973116 11.6854304,10.9405941 11.1386139,10.9405941 C10.5917973,10.9405941 10.1485149,10.4973116 10.1485149,9.95049505 C10.1485149,9.40367847 10.5917973,8.96039604 11.1386139,8.96039604 Z M17.0792079,8.96039604 C17.6260245,8.96039604 18.0693069,9.40367847 18.0693069,9.95049505 C18.0693069,10.4973116 17.6260245,10.9405941 17.0792079,10.9405941 C16.5323913,10.9405941 16.0891089,10.4973116 16.0891089,9.95049505 C16.0891089,9.40367847 16.5323913,8.96039604 17.0792079,8.96039604 Z M20.049505,8.96039604 C20.5963215,8.96039604 21.039604,9.40367847 21.039604,9.95049505 C21.039604,10.4973116 20.5963215,10.9405941 20.049505,10.9405941 C19.5026884,10.9405941 19.0594059,10.4973116 19.0594059,9.95049505 C19.0594059,9.40367847 19.5026884,8.96039604 20.049505,8.96039604 Z" id="Combined-Shape" fill="#20AD8F"></path>
    </g>
</svg>