<?xml version="1.0" encoding="UTF-8"?>
<svg width="24px" height="24px" viewBox="0 0 24 24" version="1.1" xmlns="http://www.w3.org/2000/svg" xmlns:xlink="http://www.w3.org/1999/xlink">
    <title>Icon/attachment/hangul</title>
    <g id="Icon/attachment/hangul" stroke="none" stroke-width="1" fill="none" fill-rule="evenodd">
        <path d="M17,1 C20.309,1 23,3.691 23,7 L23,7 L23,17 C23,20.309 20.309,23 17,23 L17,23 L11.455,23 C10.902,23 10.455,22.553 10.455,22 C10.455,21.447 10.902,21 11.455,21 L11.455,21 L17,21 C19.206,21 21,19.206 21,17 L21,17 L21,7 C21,4.794 19.206,3 17,3 L17,3 L7,3 C4.794,3 3,4.794 3,7 L3,7 L3,10.546 C3,11.099 2.552,11.546 2,11.546 C1.448,11.546 1,11.099 1,10.546 L1,10.546 L1,7 C1,3.691 3.691,1 7,1 L7,1 Z M1.6618,13.9865 C1.9158,13.8765 2.2378,13.8735 2.5068,13.9865 C2.6378,14.0415 2.7558,14.1195 2.8558,14.2155 C2.9558,14.3145 3.0348,14.4305 3.0898,14.5615 C3.1458,14.6945 3.1728,14.8355 3.1728,14.9825 L3.1728,14.9825 L3.1728,17.2325 L6.4868,17.2325 L6.4868,14.9825 C6.4868,14.8345 6.5148,14.6935 6.5698,14.5615 C6.6248,14.4305 6.7038,14.3145 6.8038,14.2155 C6.9048,14.1195 7.0208,14.0415 7.1488,13.9865 C7.4038,13.8765 7.7258,13.8735 7.9938,13.9865 C8.1258,14.0415 8.2428,14.1205 8.3418,14.2155 C8.4428,14.3155 8.5218,14.4315 8.5758,14.5615 C8.6318,14.6925 8.6598,14.8335 8.6598,14.9825 L8.6598,14.9825 L8.6598,21.9285 C8.6598,22.0825 8.6318,22.2245 8.5758,22.3525 C8.5218,22.4815 8.4428,22.5955 8.3408,22.6915 C8.2438,22.7845 8.1268,22.8605 7.9938,22.9165 C7.8618,22.9725 7.7208,22.9995 7.5728,22.9995 C7.4208,22.9995 7.2778,22.9725 7.1488,22.9165 C7.0178,22.8605 6.9048,22.7865 6.8048,22.6915 C6.7048,22.5965 6.6258,22.4825 6.5698,22.3525 C6.5148,22.2235 6.4868,22.0815 6.4868,21.9285 L6.4868,21.9285 L6.4868,19.4055 L3.1728,19.4055 L3.1728,21.9285 C3.1728,22.0805 3.1458,22.2235 3.0898,22.3525 C3.0338,22.4825 2.9548,22.5965 2.8548,22.6915 C2.7568,22.7855 2.6388,22.8615 2.5068,22.9165 C2.2368,23.0305 1.9148,23.0265 1.6618,22.9165 C1.5318,22.8605 1.4158,22.7845 1.3188,22.6915 C1.2178,22.5965 1.1388,22.4825 1.0838,22.3525 C1.0278,22.2245 0.9998,22.0825 0.9998,21.9285 L0.9998,21.9285 L0.9998,14.9825 C0.9998,14.8335 1.0278,14.6925 1.0838,14.5615 C1.1378,14.4305 1.2168,14.3145 1.3178,14.2155 C1.4168,14.1205 1.5328,14.0415 1.6618,13.9865 Z M17.5,13.9365 C18.052,13.9365 18.5,14.3835 18.5,14.9365 C18.5,15.4895 18.052,15.9365 17.5,15.9365 L17.5,15.9365 L12,15.9365 C11.448,15.9365 11,15.4895 11,14.9365 C11,14.3835 11.448,13.9365 12,13.9365 L12,13.9365 Z M17.5,10 C18.052,10 18.5,10.447 18.5,11 C18.5,11.553 18.052,12 17.5,12 L17.5,12 L6.5,12 C5.948,12 5.5,11.553 5.5,11 C5.5,10.447 5.948,10 6.5,10 L6.5,10 Z M17.5,6.0635 C18.052,6.0635 18.5,6.5105 18.5,7.0635 C18.5,7.6165 18.052,8.0635 17.5,8.0635 L17.5,8.0635 L6.5,8.0635 C5.948,8.0635 5.5,7.6165 5.5,7.0635 C5.5,6.5105 5.948,6.0635 6.5,6.0635 L6.5,6.0635 Z" id="Combined-Shape" fill="#9A55C6"></path>
    </g>
</svg>