<?xml version="1.0" encoding="UTF-8"?>
<svg width="200px" height="200px" viewBox="0 0 200 200" version="1.1" xmlns="http://www.w3.org/2000/svg" xmlns:xlink="http://www.w3.org/1999/xlink">
    <title>illust/b2b/no_file</title>
    <defs>
        <polygon id="path-1" points="0.6262 0.88 95.1602 0.88 95.1602 84.5158 0.6262 84.5158"></polygon>
        <polygon id="path-3" points="0.8886 0.5155 47.8886 0.5155 47.8886 83.5155 0.8886 83.5155"></polygon>
    </defs>
    <g id="illust/b2b/no_file" stroke="none" stroke-width="1" fill="none" fill-rule="evenodd">
        <g transform="translate(16.000000, 50.000000)" id="Group-2">
            <g id="Group-3" transform="translate(27.001000, 0.000000)">
                <mask id="mask-2" fill="white">
                    <use xlink:href="#path-1"></use>
                </mask>
                <g id="Clip-2"></g>
                <path d="M47.8882,0.8798 C45.5352,0.8798 43.3422,2.1458 42.1652,4.1838 L1.5082,74.6038 C0.3322,76.6418 0.3322,79.1738 1.5082,81.2118 C2.6852,83.2498 4.8782,84.5158 7.2322,84.5158 L88.5452,84.5158 C92.1962,84.5158 95.1602,81.5518 95.1602,77.9068 C95.1602,76.6418 94.8012,75.4128 94.1212,74.3508 L53.6122,4.1838 C52.4352,2.1458 50.2422,0.8798 47.8882,0.8798 M47.8882,2.6188 C49.6282,2.6188 51.2362,3.5468 52.1052,5.0538 L92.6372,75.2568 C93.1332,76.0198 93.4212,76.9298 93.4212,77.9068 C93.4212,80.5968 91.2422,82.7768 88.5522,82.7768 L88.5452,82.7768 L7.2322,82.7768 C5.4922,82.7768 3.8842,81.8488 3.0152,80.3428 C2.1452,78.8358 2.1452,76.9798 3.0152,75.4728 L43.6712,5.0538 C44.5412,3.5468 46.1492,2.6188 47.8882,2.6188" id="Fill-1" mask="url(#mask-2)"></path>
            </g>
            <path d="M34.233,83.6464 C32.189,83.6464 30.285,82.5464 29.262,80.7774 C28.241,79.0064 28.241,76.8084 29.262,75.0384 L69.92,4.6194 C70.942,2.8484 72.846,1.7494 74.889,1.7494 C76.933,1.7494 78.837,2.8484 79.86,4.6194 L120.38,74.8024 C120.977,75.7284 121.293,76.8014 121.293,77.9074 C121.293,81.0724 118.717,83.6464 115.553,83.6464 L34.233,83.6464 Z" id="Fill-4" fill="#EF7894"></path>
            <path d="M108.0162,72.5165 L75.7932,16.7045 C75.6072,16.3815 75.2622,16.1835 74.8892,16.1835 C74.5172,16.1835 74.1722,16.3815 73.9862,16.7045 L41.7632,72.5165 C41.5772,72.8395 41.5772,73.2375 41.7632,73.5605 C41.9492,73.8825 42.2932,74.0815 42.6662,74.0815 L107.1132,74.0815 C107.4852,74.0815 107.8292,73.8825 108.0162,73.5605 C108.2032,73.2375 108.2032,72.8395 108.0162,72.5165" id="Fill-6" fill="#FFFFFF"></path>
            <path d="M79.1391,39.1591 C79.1071,40.5751 79.0421,42.1061 78.9441,43.7511 C78.8461,45.3951 78.7151,47.0401 78.5531,48.6841 C78.3891,50.3301 78.1941,51.7541 77.9671,52.9591 C77.8361,53.0561 77.6411,53.1541 77.3801,53.2521 C77.1201,53.3491 76.8431,53.4311 76.5501,53.4961 C76.2571,53.5611 75.9641,53.6101 75.6711,53.6421 C75.3771,53.6761 75.1171,53.6911 74.8891,53.6911 C73.9441,53.6911 73.1561,53.5451 72.5201,53.2521 C71.8851,52.9591 71.4861,52.3901 71.3241,51.5431 C71.1601,50.7941 71.0221,49.6541 70.9081,48.1231 C70.7931,46.5931 70.6881,44.9311 70.5901,43.1401 C70.4931,41.3491 70.4191,39.5741 70.3711,37.8151 C70.3221,36.0571 70.2971,34.5591 70.2971,33.3221 C70.9491,32.9641 71.6901,32.6801 72.5201,32.4671 C73.3511,32.2561 74.1721,32.1491 74.9871,32.1491 C76.3221,32.1491 77.3561,32.4591 78.0881,33.0771 C78.8221,33.6961 79.1881,34.6401 79.1881,35.9101 C79.1881,36.6601 79.1711,37.7421 79.1391,39.1591 Z M70.2001,60.5301 C70.2001,59.1951 70.6161,58.0971 71.4461,57.2331 C72.2761,56.3711 73.4231,55.9381 74.8891,55.9381 C76.3551,55.9381 77.5031,56.3711 78.3331,57.2331 C79.1641,58.0971 79.5791,59.1951 79.5791,60.5301 C79.5791,61.8661 79.1641,62.9651 78.3331,63.8281 C77.5031,64.6901 76.3551,65.1221 74.8891,65.1221 C73.4231,65.1221 72.2761,64.6901 71.4461,63.8281 C70.6161,62.9651 70.2001,61.8661 70.2001,60.5301" id="Fill-8" fill="#EF7894"></path>
            <g id="Group-12" opacity="0.2" transform="translate(74.001000, 0.000000)">
                <mask id="mask-4" fill="white">
                    <use xlink:href="#path-3"></use>
                </mask>
                <g id="Clip-11"></g>
                <path d="M6.03742654,4.98255665 C4.89209739,2.98442187 3.28968523,1.7494 1,1.7494 L0.8886,83.5155 L40.4515971,83.5155 C44.0033825,83.5155 46.8886,80.6094787 46.8886,77.0367588 C46.8886,75.795523 46.53926,74.5905634 45.8775575,73.5493371 L6.03742654,4.98255665 Z" id="Fill-10" fill="#000000" mask="url(#mask-4)"></path>
            </g>
            <polygon id="Fill-13" fill="#FFFBF3" points="31.6383 40.829 30.4553 36.147 30.2743 36.147 23.9103 36.147 23.7293 36.147 22.5473 40.829 7.5463 92.33 9.5463 92.33 44.6383 92.33 46.6383 92.33"></polygon>
            <polygon id="Fill-15" fill-opacity="0.2" fill="#999999" points="31.6383 40.829 30.4553 36.147 30.2743 36.147 27.0923 36.147 22.3053 92.33 44.6383 92.33 46.6383 92.33"></polygon>
            <polygon id="Fill-17" fill="#AEAEFF" points="-1.31450406e-13 98.512 54.184 98.512 54.184 92.33 -1.31450406e-13 92.33"></polygon>
            <polygon id="Fill-19" fill-opacity="0.2" fill="#999999" points="27.092 98.512 54.184 98.512 54.184 92.33 27.092 92.33"></polygon>
            <polygon id="Fill-20" fill="#AEAEFF" points="31.6383 40.829 30.4553 36.147 30.2743 36.147 23.9103 36.147 23.7293 36.147 22.5473 40.829 20.0443 49.42 34.1403 49.42"></polygon>
            <polygon id="Fill-21" fill="#AEAEFF" points="41.3424 74.1474 12.8424 74.1474 7.5464 92.3304 9.5464 92.3304 44.6384 92.3304 46.6384 92.3304"></polygon>
            <polygon id="Fill-22" fill="#AEAEFF" points="36.4703 57.4198 17.7143 57.4198 15.1723 66.1478 39.0123 66.1478"></polygon>
            <polygon id="Fill-23" fill-opacity="0.2" fill="#999999" points="41.3424 74.1474 23.8544 74.1474 22.3054 92.3304 44.6384 92.3304 46.6384 92.3304"></polygon>
            <polygon id="Fill-24" fill-opacity="0.2" fill="#999999" points="24.5357 66.1474 39.0127 66.1474 36.4707 57.4194 25.2797 57.4194"></polygon>
            <polygon id="Fill-25" fill-opacity="0.2" fill="#999999" points="34.1402 49.4198 31.6382 40.8288 30.4552 36.1478 30.2742 36.1478 27.0922 36.1478 25.9612 49.4198"></polygon>
            <polygon id="Fill-26" fill="#FFFBF3" points="160.397 99.1835 165.156 99.9995 165.23 99.8335 167.808 94.0155 167.881 93.8495 164.081 90.8715 123.074 56.2905 122.263 58.1205 108.045 90.2025 107.235 92.0305"></polygon>
            <polygon id="Fill-27" fill-opacity="0.2" fill="#C9C9C9" points="160.397 99.1835 165.156 99.9995 165.23 99.8335 166.519 96.9245 117.094 69.7845 108.045 90.2025 107.235 92.0305"></polygon>
            <polygon id="Fill-28" fill="#AEAEFF" points="98.5259 96.4238 120.4789 46.8878 126.1309 49.3928 104.1769 98.9288"></polygon>
            <polygon id="Fill-29" fill-opacity="0.2" fill="#999999" points="98.5259 96.4238 109.5029 71.6558 115.1539 74.1608 104.1769 98.9288"></polygon>
            <polygon id="Fill-30" fill="#AEAEFF" points="160.397 99.1835 165.156 99.9995 165.23 99.8335 167.808 94.0155 167.881 93.8495 164.081 90.8715 157.24 85.1035 151.529 97.9905"></polygon>
            <polygon id="Fill-31" fill="#AEAEFF" points="126.0035 94.5556 137.5505 68.4996 123.0735 56.2906 122.2635 58.1196 108.0455 90.2016 107.2345 92.0306"></polygon>
            <polygon id="Fill-32" fill="#AEAEFF" points="143.2701 96.8788 150.8701 79.7318 143.9201 73.8718 134.2611 95.6668"></polygon>
            <polygon id="Fill-33" fill-opacity="0.2" fill="#999999" points="126.0035 94.5556 133.0895 78.5676 117.0945 69.7846 108.0455 90.2016 107.2345 92.0306"></polygon>
            <polygon id="Fill-34" fill-opacity="0.2" fill="#999999" points="140.1265 82.4325 134.2615 95.6665 143.2705 96.8785 147.8045 86.6485"></polygon>
            <polygon id="Fill-35" fill-opacity="0.2" fill="#999999" points="151.5289 97.9902 160.3969 99.1832 165.1559 100.0002 165.2299 99.8342 166.5189 96.9252 154.8419 90.5122"></polygon>
        </g>
    </g>
</svg>