<?xml version="1.0" encoding="UTF-8"?>
<svg width="16px" height="16px" viewBox="0 0 16 16" version="1.1" xmlns="http://www.w3.org/2000/svg" xmlns:xlink="http://www.w3.org/1999/xlink">
    <title>forward copy</title>
    <defs>
        <path d="M9.78900451,-7.10542736e-15 C10.4048727,-7.10542736e-15 10.909963,0.531536199 10.9589324,1.20758879 L10.9628235,1.31547848 L10.962,6.217 L9.366,7.309 L9.36658824,1.68658824 L1.68658824,1.68658824 L1.68658824,11.9265882 L5.40409734,11.9271047 C5.51892912,12.5088192 5.76889086,13.0419847 6.11992022,13.492539 L1.17381902,13.4927059 C0.557950794,13.4927059 0.0528605319,12.9611697 0.0038911762,12.2851171 L6.39488462e-13,12.1772274 L6.39488462e-13,1.31547848 C6.39488462e-13,0.625285712 0.474296851,0.059239875 1.07754761,0.00436077322 L1.17381902,-7.10542736e-15 L9.78900451,-7.10542736e-15 Z M5.89267246,9.23343933 L3.09344298,9.23399516 C2.78219704,9.23399516 2.52988235,8.93512509 2.52988235,8.56645017 C2.52988235,8.22410918 2.74743941,7.94195706 3.02771991,7.90339625 L3.09344298,7.89890519 L7.32397049,7.89751822 C6.73650921,8.20815996 6.241916,8.67096087 5.89267246,9.23343933 Z M7.86938054,5.63604083 C8.18062649,5.63604083 8.43294118,5.9349109 8.43294118,6.30358582 C8.43294118,6.64592681 8.21538412,6.92807893 7.93510362,6.96663974 L7.86938054,6.9711308 L3.09344298,6.9711308 C2.78219704,6.9711308 2.52988235,6.67226073 2.52988235,6.30358582 C2.52988235,5.96124482 2.74743941,5.6790927 3.02771991,5.64053189 L3.09344298,5.63604083 L7.86938054,5.63604083 Z M7.86938054,3.37317647 C8.18062649,3.37317647 8.43294118,3.67204654 8.43294118,4.04072146 C8.43294118,4.38306245 8.21538412,4.66521457 7.93510362,4.70377538 L7.86938054,4.70826644 L3.09344298,4.70826644 C2.78219704,4.70826644 2.52988235,4.40939637 2.52988235,4.04072146 C2.52988235,3.69838046 2.74743941,3.41622834 3.02771991,3.37766753 L3.09344298,3.37317647 L7.86938054,3.37317647 Z" id="path-1"></path>
    </defs>
    <g id="01_WAPL-Note" stroke="none" stroke-width="1" fill="none" fill-rule="evenodd">
        <g id="02_04_Page-List_Page-Drag-and-Drop_01" transform="translate(-1065.000000, -449.000000)">
            <g id="Group-4" transform="translate(1065.000000, 449.000000)">
                <g id="Rectangle">
                    <mask id="mask-2" fill="white">
                        <use xlink:href="#path-1"></use>
                    </mask>
                    <use id="Combined-Shape" fill="#75757F" xlink:href="#path-1"></use>
                </g>
                <path d="M13.8315294,5.68972549 C15.0291426,5.68972549 16,6.66058284 16,7.85819608 C16,9.05580931 15.0291426,10.0266667 13.8315294,10.0266667 C13.1574838,10.0266667 12.5552679,9.71912725 12.1575448,9.23671154 L10.71498,10.1418914 C10.7830094,10.3522639 10.8197647,10.5767024 10.8197647,10.8097255 L10.8158235,10.9027255 L12.4134157,12.1207154 C12.7936103,11.7917776 13.2893312,11.5927843 13.8315294,11.5927843 C15.0291426,11.5927843 16,12.5636417 16,13.7612549 C16,14.9588681 15.0291426,15.9297255 13.8315294,15.9297255 C12.6339162,15.9297255 11.6630588,14.9588681 11.6630588,13.7612549 C11.6630588,13.6345978 11.6739176,13.5104769 11.694755,13.3897724 L10.243107,12.2822881 C9.84699827,12.710268 9.28043518,12.9781961 8.65129412,12.9781961 C7.45368088,12.9781961 6.48282353,12.0073387 6.48282353,10.8097255 C6.48282353,9.61211225 7.45368088,8.6412549 8.65129412,8.6412549 C9.08722017,8.6412549 9.49310269,8.76988657 9.83305602,8.99126425 L11.6628235,7.84272549 L11.6685035,7.70333276 C11.7479099,6.57799573 12.6859863,5.68972549 13.8315294,5.68972549 Z M13.8315294,13.0384314 C13.432325,13.0384314 13.1087059,13.3620505 13.1087059,13.7612549 C13.1087059,14.1604593 13.432325,14.4840784 13.8315294,14.4840784 C14.2307338,14.4840784 14.5543529,14.1604593 14.5543529,13.7612549 C14.5543529,13.3620505 14.2307338,13.0384314 13.8315294,13.0384314 Z M8.65129412,10.086902 C8.25208971,10.086902 7.92847059,10.4105211 7.92847059,10.8097255 C7.92847059,11.2089299 8.25208971,11.532549 8.65129412,11.532549 C9.05049853,11.532549 9.37411765,11.2089299 9.37411765,10.8097255 C9.37411765,10.4105211 9.05049853,10.086902 8.65129412,10.086902 Z M13.8315294,7.13537255 C13.432325,7.13537255 13.1087059,7.45899167 13.1087059,7.85819608 C13.1087059,8.25740049 13.432325,8.58101961 13.8315294,8.58101961 C14.2307338,8.58101961 14.5543529,8.25740049 14.5543529,7.85819608 C14.5543529,7.45899167 14.2307338,7.13537255 13.8315294,7.13537255 Z" id="Combined-Shape" fill="#75757F"></path>
            </g>
        </g>
    </g>
</svg>