<?xml version="1.0" encoding="UTF-8"?>
<svg width="24px" height="24px" viewBox="0 0 24 24" version="1.1" xmlns="http://www.w3.org/2000/svg" xmlns:xlink="http://www.w3.org/1999/xlink">
    <title>Icon/common/page_shared</title>
    <g id="Icon/common/page_shared" stroke="none" stroke-width="1" fill="none" fill-rule="evenodd">
        <path d="M21.1402,12.0905 C22.3292,11.7545 23.5772,12.4475 23.9142,13.6345 C24.0782,14.2075 24.0072,14.8105 23.7162,15.3325 C23.4232,15.8575 22.9422,16.2365 22.3602,16.3995 C22.1572,16.4565 21.9522,16.4835 21.7512,16.4835 C21.2572,16.4835 20.7842,16.3205 20.3992,16.0335 L20.3992,16.0335 L17.4962,17.6405 C17.5282,17.8325 17.5412,18.0255 17.5232,18.2155 L17.5232,18.2155 L20.4182,19.9635 C20.6332,19.8055 20.8752,19.6815 21.1402,19.6075 C22.3292,19.2705 23.5772,19.9635 23.9142,21.1515 C24.0782,21.7235 24.0072,22.3275 23.7162,22.8485 C23.4232,23.3735 22.9422,23.7525 22.3602,23.9155 C22.1582,23.9725 21.9532,23.9995 21.7522,23.9995 C20.7702,23.9995 19.8652,23.3555 19.5862,22.3715 C19.4962,22.0545 19.4832,21.7305 19.5332,21.4155 L19.5332,21.4155 L16.7242,19.7195 C16.4852,19.9185 16.2072,20.0705 15.8962,20.1575 C15.6932,20.2135 15.4892,20.2415 15.2872,20.2415 C14.3072,20.2415 13.4032,19.5975 13.1222,18.6145 L13.1222,18.6145 C12.9592,18.0405 13.0292,17.4365 13.3202,16.9155 C13.6132,16.3905 14.0942,16.0115 14.6742,15.8485 C15.3622,15.6575 16.0582,15.8115 16.5952,16.1965 L16.5952,16.1965 L19.5342,14.5695 C19.4612,14.0835 19.5412,13.5915 19.7842,13.1565 C20.0772,12.6315 20.5592,12.2525 21.1402,12.0905 Z M21.7512,21.2225 C21.7002,21.2225 21.6492,21.2295 21.5982,21.2445 C21.4562,21.2845 21.3382,21.3755 21.2672,21.5025 C21.1982,21.6265 21.1812,21.7695 21.2202,21.9055 L21.2202,21.9055 C21.3032,22.1955 21.6112,22.3565 21.9022,22.2795 C22.0442,22.2395 22.1612,22.1475 22.2322,22.0195 C22.3012,21.8955 22.3182,21.7525 22.2792,21.6175 C22.2112,21.3785 21.9912,21.2225 21.7512,21.2225 Z M12.2716,1.0002 C13.2716,1.0002 14.2166,1.3822 14.9336,2.0742 L14.9336,2.0742 L19.8366,6.8062 C20.5756,7.5192 20.9996,8.5162 20.9996,9.5412 L20.9996,9.5412 L20.9996,10.0972 C20.9996,10.6492 20.5526,11.0972 19.9996,11.0972 C19.4466,11.0972 18.9996,10.6492 18.9996,10.0972 L18.9996,10.0972 L18.9996,9.6782 L15.5276,9.6262 C13.7016,9.5992 12.2166,8.0982 12.2166,6.2792 L12.2166,6.2792 L12.2166,3.0002 L7.7086,3.0002 C5.6636,3.0002 3.9996,4.6512 3.9996,6.6812 L3.9996,6.6812 L3.9996,16.0972 C3.9996,18.1262 5.6636,19.7772 7.7086,19.7772 L7.7086,19.7772 L12.2906,19.7772 C12.8436,19.7772 13.2906,20.2242 13.2906,20.7772 C13.2906,21.3302 12.8436,21.7772 12.2906,21.7772 L12.2906,21.7772 L7.7086,21.7772 C4.5616,21.7772 1.9996,19.2292 1.9996,16.0972 L1.9996,16.0972 L1.9996,6.6812 C1.9996,3.5492 4.5616,1.0002 7.7086,1.0002 L7.7086,1.0002 Z M15.8152,17.8585 C15.7332,17.5705 15.4262,17.4005 15.1342,17.4855 C14.9932,17.5255 14.8762,17.6175 14.8042,17.7455 C14.7352,17.8695 14.7182,18.0115 14.7562,18.1475 C14.8392,18.4365 15.1532,18.6045 15.4362,18.5205 C15.5802,18.4805 15.6972,18.3885 15.7682,18.2605 C15.8372,18.1375 15.8542,17.9945 15.8152,17.8585 Z M11.2816,15.083 C11.8346,15.083 12.2816,15.53 12.2816,16.083 C12.2816,16.636 11.8346,17.083 11.2816,17.083 L11.2816,17.083 L7.7176,17.083 C7.1646,17.083 6.7176,16.636 6.7176,16.083 C6.7176,15.53 7.1646,15.083 7.7176,15.083 L7.7176,15.083 Z M21.7512,13.7065 C21.7002,13.7065 21.6492,13.7125 21.5982,13.7275 C21.4562,13.7675 21.3382,13.8595 21.2672,13.9865 C21.1982,14.1105 21.1812,14.2525 21.2202,14.3895 L21.2202,14.3895 C21.3032,14.6785 21.6112,14.8455 21.9012,14.7625 C22.0442,14.7225 22.1612,14.6305 22.2322,14.5025 C22.3012,14.3785 22.3182,14.2365 22.2792,14.1005 C22.2112,13.8625 21.9912,13.7065 21.7512,13.7065 Z M15.282,11.3281 C15.835,11.3281 16.282,11.7751 16.282,12.3281 C16.282,12.8811 15.835,13.3281 15.282,13.3281 L15.282,13.3281 L7.718,13.3281 C7.165,13.3281 6.718,12.8811 6.718,12.3281 C6.718,11.7751 7.165,11.3281 7.718,11.3281 L7.718,11.3281 Z M10.5606,7.5723 C11.1136,7.5723 11.5606,8.0193 11.5606,8.5723 C11.5606,9.1253 11.1136,9.5723 10.5606,9.5723 L10.5606,9.5723 L7.7176,9.5723 C7.1646,9.5723 6.7176,9.1253 6.7176,8.5723 C6.7176,8.0193 7.1646,7.5723 7.7176,7.5723 L7.7176,7.5723 Z M14.2166,4.1622 L14.2166,6.2792 C14.2166,7.0122 14.8186,7.6152 15.5576,7.6262 L15.5576,7.6262 L17.8406,7.6602 L14.2166,4.1622 Z" id="Combined-Shape" fill="#000000"></path>
    </g>
</svg>