<?xml version="1.0" encoding="UTF-8"?>
<svg width="24px" height="24px" viewBox="0 0 24 24" version="1.1" xmlns="http://www.w3.org/2000/svg" xmlns:xlink="http://www.w3.org/1999/xlink">
    <title>Icon/attachment/pdf</title>
    <g id="Icon/attachment/pdf" stroke="none" stroke-width="1" fill="none" fill-rule="evenodd">
        <path d="M13.6894489,1.00019804 C14.7372756,0.982258048 15.7154462,1.37693788 16.4677321,2.09453758 L16.4677321,2.09453758 L21.6879589,7.06192216 C22.4621367,7.79845851 22.9129111,8.83399474 22.9248522,9.90242096 L22.9248522,9.90242096 L22.9994837,16.8611447 C23.0154051,18.454814 22.4123823,19.9597801 21.2998749,21.0979729 C20.1873676,22.2371624 18.6967271,22.8750288 17.106578,22.8909755 L17.106578,22.8909755 L7.12784473,22.9996121 L7.06316407,22.9996121 C5.496897,22.9996121 4.01919269,22.396629 2.89872463,21.2973062 C1.7613401,20.1820366 1.12448437,18.6900273 1.10856297,17.0973546 L1.10856297,17.0973546 L1.00009848,7.10278547 C0.984177089,5.51011281 1.58719986,4.00514678 2.69970722,2.86595725 C3.81221458,1.7277644 5.30285502,1.089898 6.89300418,1.07395134 L6.89300418,1.07395134 Z M13.712336,2.99353053 L13.7113409,2.99353053 L6.9148961,3.06728384 C5.85512835,3.07824717 4.86302653,3.50183032 4.12268174,4.26029333 C3.38134187,5.01975302 2.97932669,6.02140259 2.99027265,7.08185548 L2.99027265,7.08185548 L3.09873714,17.0754279 C3.1096831,18.1368775 3.53259511,19.1305537 4.28985637,19.8720734 C5.03716677,20.6046231 6.02031281,21.0062796 7.06316407,21.0062796 L7.06316407,21.0062796 L7.1069479,21.0062796 L17.0846861,20.897643 C18.1444538,20.8866797 19.1365556,20.4630965 19.8769004,19.7046335 C20.6182403,18.9451738 21.0202555,17.9435242 21.0093095,16.8830714 L21.0093095,16.8830714 L20.934678,10.0050776 L17.2190228,9.99012759 C15.3263672,9.98215426 13.770051,8.43333491 13.7501493,6.53966904 L13.7501493,6.53966904 L13.712336,2.99353053 Z M7.49921123,12.26153 C7.89625098,12.26153 8.19676727,12.2934233 8.42066187,12.3572099 C8.65948277,12.4239866 8.86944614,12.5376065 9.04458147,12.6920898 C9.22170697,12.8485664 9.35703881,13.0429163 9.44858682,13.2691595 C9.53615449,13.4864328 9.58093341,13.730616 9.58093341,13.9967259 C9.58093341,14.5747923 9.39385703,15.0242888 9.02368464,15.334252 C8.66943364,15.6312585 8.1559687,15.7817552 7.49921123,15.7817552 L7.49921123,15.7817552 L6.95589368,15.7817552 L6.95589368,16.7834047 C6.95589368,17.0564913 6.88225724,17.2757579 6.73697453,17.4362211 C6.58572129,17.6016677 6.38570879,17.690371 6.15683876,17.690371 C5.92199821,17.690371 5.71900044,17.6026644 5.56973738,17.4372178 C5.42644484,17.2767545 5.35479857,17.0594813 5.35479857,16.7893847 L5.35479857,16.7893847 L5.35479857,13.1704896 C5.35479857,12.867503 5.43838588,12.6362765 5.60257525,12.4837865 C5.75780884,12.3362799 5.98767395,12.26153 6.28221973,12.26153 L6.28221973,12.26153 Z M17.9074241,12.2614303 C18.0069328,12.2614303 18.1044513,12.2823603 18.1979895,12.3222269 C18.2895375,12.3620936 18.3701396,12.4179069 18.4348202,12.4856802 C18.5024861,12.5584368 18.5542307,12.6381701 18.5890587,12.7248801 C18.6258769,12.8195634 18.6447836,12.91624 18.6447836,13.0129167 C18.6447836,13.1125833 18.626872,13.2062699 18.5900538,13.2979632 C18.5522405,13.3896565 18.4995009,13.4683931 18.4348202,13.5381598 C18.3731248,13.6029431 18.2945129,13.6587564 18.2019698,13.7006164 C18.1044513,13.7424763 18.0069328,13.7624097 17.9074241,13.7624097 L17.9074241,13.7624097 L16.5192776,13.7624097 L16.5192776,14.4580827 L17.4108756,14.4580827 C17.5133696,14.4580827 17.6118832,14.4800094 17.7044263,14.5218693 C17.7909989,14.5597427 17.8676206,14.6115693 17.9342914,14.6773493 C18.0019573,14.7461193 18.054697,14.8248559 18.0935054,14.9125625 C18.135299,15.0092391 18.1561958,15.1079091 18.1561958,15.2075757 C18.1561958,15.3122257 18.135299,15.4108956 18.0954955,15.5035856 C18.054697,15.5942822 18.0019573,15.6720222 17.9382718,15.7378022 C17.8646353,15.8105588 17.7880136,15.8623855 17.700446,15.8992621 C17.6118832,15.9391288 17.5133696,15.9600587 17.4108756,15.9600587 L17.4108756,15.9600587 L16.5192776,15.9600587 L16.5192776,16.819185 C16.5192776,16.9228383 16.5003709,17.0215083 16.4625576,17.1112083 C16.4227541,17.1999116 16.3700145,17.2796449 16.3013535,17.3474182 C16.2326925,17.4161881 16.1530855,17.4700081 16.0625326,17.5078814 C15.9719797,17.5457547 15.8754562,17.5656881 15.7739574,17.5656881 C15.6714634,17.5656881 15.5729498,17.5457547 15.4833919,17.5068848 C15.3938341,17.4690114 15.3142271,17.4151915 15.2465612,17.3474182 C15.1788953,17.2796449 15.1261557,17.1999116 15.0883424,17.1102116 C15.049534,17.0235016 15.0286371,16.923835 15.0286371,16.8181884 L15.0286371,16.8181884 L15.0286371,12.9949767 C15.0365978,12.8255434 15.0863522,12.6820235 15.1779002,12.5584368 C15.2724335,12.4358469 15.3908488,12.3501336 15.5321512,12.3003003 L15.5321512,12.3003003 L15.5968319,12.2823603 C15.6236992,12.2763803 15.6495715,12.271397 15.6754437,12.268407 L15.6754437,12.268407 L15.7530605,12.2614303 Z M11.9570023,12.2614303 C12.1968183,12.2614303 12.4316589,12.2943203 12.6535633,12.3571103 C12.8724825,12.4179069 13.0834409,12.5066102 13.278478,12.6202302 C13.47252,12.7328534 13.6516356,12.87139 13.8098545,13.02986 C13.9670782,13.1883299 14.1053953,13.3667332 14.2198304,13.5590898 C14.3362556,13.758423 14.4258134,13.9786862 14.4885039,14.2148961 C14.5492042,14.454096 14.581047,14.6942926 14.581047,14.9314992 C14.581047,15.2912957 14.5103958,15.6351455 14.3740689,15.9530821 C14.2357518,16.2690253 14.0466852,16.5490885 13.8088594,16.7843017 C13.5710336,17.0185183 13.2914141,17.2068882 12.9759715,17.3444282 C12.6565486,17.4819681 12.3142386,17.5507381 11.9570023,17.5507381 L11.9570023,17.5507381 L10.7161287,17.5507381 C10.6126397,17.5507381 10.5151212,17.5318014 10.4255633,17.4929314 C10.3389907,17.4560548 10.261374,17.4062215 10.193708,17.3424348 C10.1220618,17.2736649 10.0683271,17.1949282 10.0295187,17.1042316 C9.99071027,17.0155283 9.97080852,16.9158617 9.97080852,16.8122084 L9.97080852,16.8122084 L9.97080852,13.0049433 C9.97080852,12.9022867 9.99071027,12.8036167 10.0295187,12.7139168 C10.067332,12.6252135 10.1210667,12.5444835 10.1907228,12.4757135 C10.2573936,12.4099336 10.3360055,12.3571103 10.4255633,12.3192369 C10.5151212,12.2813636 10.6126397,12.2614303 10.7161287,12.2614303 L10.7161287,12.2614303 Z M11.9858599,13.7624097 L11.461449,13.7624097 L11.461449,16.0387954 L11.9858599,16.0387954 C12.136118,16.0387954 12.2724449,16.0108887 12.4067817,15.9530821 C12.5411185,15.8952754 12.6545584,15.8175355 12.7560573,15.7148788 C12.8535758,15.6172056 12.9321877,15.4976056 12.9899027,15.3640523 C13.0476178,15.2304991 13.0754802,15.0909658 13.0754802,14.9364825 C13.0754802,14.7790092 13.0456276,14.6235293 12.9869175,14.4730327 C12.9282073,14.3205428 12.8515856,14.1969562 12.753072,14.0923062 C12.6525682,13.9886529 12.5391283,13.9089196 12.4057866,13.851113 C12.2724449,13.791313 12.136118,13.7624097 11.9858599,13.7624097 L11.9858599,13.7624097 Z M7.26934611,13.6279594 L6.95589368,13.6279594 L6.95589368,14.4103424 L7.26934611,14.4103424 C7.45940775,14.4103424 7.61563642,14.3914057 7.73504687,14.3545291 C7.81664401,14.3286158 7.87535415,14.2917391 7.91217237,14.2419058 C7.9479955,14.1930692 7.96690216,14.1153292 7.96690216,14.0166592 C7.96690216,13.8551993 7.91615272,13.7804493 7.87236889,13.733606 C7.86639836,13.727626 7.75395352,13.6279594 7.26934611,13.6279594 L7.26934611,13.6279594 Z M15.7144512,4.12674006 L15.7403234,6.51873905 C15.7492792,7.33002538 16.4149925,7.99280843 17.2269835,7.9967951 L17.2269835,7.9967951 L19.792318,8.00676176 L15.7144512,4.12674006 Z" id="Combined-Shape" fill="#FF7C61"></path>
    </g>
</svg>