<?xml version="1.0" encoding="UTF-8"?>
<svg width="24px" height="24px" viewBox="0 0 24 24" version="1.1" xmlns="http://www.w3.org/2000/svg" xmlns:xlink="http://www.w3.org/1999/xlink">
    <title>Icon/attachment/point</title>
    <g id="Icon/attachment/point" stroke="none" stroke-width="1" fill="none" fill-rule="evenodd">
        <path d="M17,1.0004 C20.309,1.0004 23,3.6914 23,7.0004 L23,7.0004 L23,17.0004 C23,20.3084 20.309,23.0004 17,23.0004 L17,23.0004 L6.455,23.0004 C5.902,23.0004 5.455,22.5524 5.455,22.0004 C5.455,21.4474 5.902,21.0004 6.455,21.0004 L6.455,21.0004 L17,21.0004 C19.206,21.0004 21,19.2054 21,17.0004 L21,17.0004 L21,7.0004 C21,4.7944 19.206,3.0004 17,3.0004 L17,3.0004 L7,3.0004 C4.794,3.0004 3,4.7944 3,7.0004 L3,7.0004 L3,10.5454 C3,11.0974 2.552,11.5454 2,11.5454 C1.448,11.5454 1,11.0974 1,10.5454 L1,10.5454 L1,7.0004 C1,3.6914 3.691,1.0004 7,1.0004 L7,1.0004 Z M4.9005,13.0253 C5.6295,13.0253 6.2055,13.0843 6.6115,13.2003 C7.0355,13.3183 7.4105,13.5193 7.7225,13.7963 C8.0365,14.0733 8.2775,14.4183 8.4405,14.8193 C8.5985,15.2093 8.6785,15.6513 8.6785,16.1323 C8.6785,17.1703 8.3455,17.9763 7.6875,18.5283 C7.0485,19.0613 6.1115,19.3313 4.9005,19.3313 L4.9005,19.3313 L3.6255,19.3313 L3.6255,21.4873 C3.6255,21.9533 3.5035,22.3233 3.2625,22.5873 C3.0165,22.8573 2.6885,23.0003 2.3155,23.0003 C1.9305,23.0003 1.5975,22.8573 1.3545,22.5883 C1.1195,22.3273 1.0005,21.9613 1.0005,21.4993 L1.0005,21.4993 L1.0005,14.5443 C1.0005,14.0283 1.1355,13.6403 1.4035,13.3903 C1.6645,13.1483 2.0515,13.0253 2.5565,13.0253 L2.5565,13.0253 Z M17.937,12 C18.489,12 18.937,12.448 18.937,13 L18.937,13 L18.937,17.5 C18.937,18.052 18.489,18.5 17.937,18.5 C17.385,18.5 16.937,18.052 16.937,17.5 L16.937,17.5 L16.937,13 C16.937,12.448 17.385,12 17.937,12 Z M14.5,6.5 C15.052,6.5 15.5,6.948 15.5,7.5 L15.5,7.5 L15.5,17.5 C15.5,18.052 15.052,18.5 14.5,18.5 C13.948,18.5 13.5,18.052 13.5,17.5 L13.5,17.5 L13.5,7.5 C13.5,6.948 13.948,6.5 14.5,6.5 Z M11.063,9 C11.615,9 12.063,9.448 12.063,10 L12.063,10 L12.063,17.5 C12.063,18.052 11.615,18.5 11.063,18.5 C10.511,18.5 10.063,18.052 10.063,17.5 L10.063,17.5 L10.063,10 C10.063,9.448 10.511,9 11.063,9 Z M4.4585,15.1953 L3.6255,15.1953 L3.6255,17.1553 L4.4585,17.1553 C4.8465,17.1553 5.1695,17.1153 5.4195,17.0373 C5.6255,16.9733 5.7795,16.8723 5.8795,16.7373 C5.9785,16.6043 6.0285,16.4123 6.0285,16.1693 C6.0285,15.8693 5.9515,15.6463 5.7855,15.4693 C5.6875,15.3693 5.3775,15.1953 4.4585,15.1953 L4.4585,15.1953 Z" id="Combined-Shape" fill="#F15A55"></path>
    </g>
</svg>