<?xml version="1.0" encoding="UTF-8"?>
<svg width="24px" height="24px" viewBox="0 0 24 24" version="1.1" xmlns="http://www.w3.org/2000/svg" xmlns:xlink="http://www.w3.org/1999/xlink">
    <title>Icon/common/tag</title>
    <g id="Icon/common/tag" stroke="none" stroke-width="1" fill="none" fill-rule="evenodd">
        <path d="M9.9201,3.0003 C11.1771,3.0003 12.3571,3.4893 13.2451,4.3783 L13.2451,4.3783 L20.5331,11.6653 C22.3671,13.4993 22.3671,16.4823 20.5331,18.3163 L20.5331,18.3163 L17.3151,21.5333 C16.4271,22.4223 15.2461,22.9113 13.9901,22.9113 C12.7331,22.9113 11.5531,22.4213 10.6651,21.5333 L10.6651,21.5333 L3.3771,14.2463 C2.4891,13.3583 2.0001,12.1773 2.0001,10.9203 L2.0001,10.9203 L2.0001,7.7033 C2.0001,5.1103 4.1091,3.0003 6.7031,3.0003 L6.7031,3.0003 Z M9.9201,5.0003 L6.7031,5.0003 C5.2131,5.0003 4.0001,6.2133 4.0001,7.7033 L4.0001,7.7033 L4.0001,10.9203 C4.0001,11.6433 4.2811,12.3213 4.7911,12.8323 L4.7911,12.8323 L12.0791,20.1193 C13.0991,21.1393 14.8791,21.1403 15.9011,20.1193 L15.9011,20.1193 L19.1191,16.9023 C20.1731,15.8483 20.1731,14.1333 19.1191,13.0793 L19.1191,13.0793 L11.8311,5.7923 C11.3201,5.2813 10.6411,5.0003 9.9201,5.0003 L9.9201,5.0003 Z M8.0371,6.7985 C9.2981,6.7985 10.3241,7.8245 10.3241,9.0855 C10.3241,10.3465 9.2981,11.3725 8.0371,11.3725 C6.7761,11.3725 5.7501,10.3465 5.7501,9.0855 C5.7501,7.8245 6.7761,6.7985 8.0371,6.7985 Z M8.0371,8.2985 C7.6031,8.2985 7.2501,8.6515 7.2501,9.0855 C7.2501,9.5195 7.6031,9.8725 8.0371,9.8725 C8.4711,9.8725 8.8241,9.5195 8.8241,9.0855 C8.8241,8.6515 8.4711,8.2985 8.0371,8.2985 Z" id="Combined-Shape" fill="#000000"></path>
    </g>
</svg>