<?xml version="1.0" encoding="UTF-8"?>
<svg width="20px" height="20px" viewBox="0 0 20 20" version="1.1" xmlns="http://www.w3.org/2000/svg" xmlns:xlink="http://www.w3.org/1999/xlink">
    <!-- Generator: Sketch 63.1 (92452) - https://sketch.com -->
    <title>Icon/system/tag_add</title>
    <desc>Created with Sketch.</desc>
    <g id="Icon/system/tag_add" stroke="none" stroke-width="1" fill="none" fill-rule="evenodd">
        <path d="M16,12 C16.5522848,12 17,12.4477153 17,13 L16.9996194,15 L19,15 C19.5522848,15 20,15.4477153 20,16 C20,16.5522848 19.5522848,17 19,17 L16.9996194,17 L17,19 C17,19.5522848 16.5522848,20 16,20 C15.4477153,20 15,19.5522848 15,19 L14.9996194,17 L13,17 C12.4477153,17 12,16.5522848 12,16 C12,15.4477153 12.4477153,15 13,15 L14.9996194,15 L15,13 C15,12.4477153 15.4477153,12 16,12 Z M8.34023349,1.00074646 L14.3094032,1.23974807 C15.0221643,1.26919481 15.6289873,1.87289763 15.6577193,2.58806415 L15.8973704,8.5532031 C15.9079389,8.89539977 15.7927278,9.20762807 15.5687793,9.43947123 L13.6616194,11.346 L9.53741848,15.4710789 C9.08530775,15.9231896 8.3387291,15.9245472 7.81438626,15.4959105 L7.70561696,15.3974858 L3.80461938,11.496 L3.02365047,12.2861419 L9.12199782,18.3939493 L10.9866194,16.474 L12.0926194,17.534 L10.0106081,19.6093089 C9.5775224,20.0686785 8.874178,20.0836069 8.38701228,19.6654142 L8.28610575,19.5691763 L1.91528974,13.1731645 C1.4614885,12.6931552 1.41548103,11.9467627 1.78862933,11.4492151 L1.87500948,11.3465943 L2.72861938,10.421 L1.49998163,9.19185043 C0.975025961,8.66689476 0.941984154,7.84445326 1.42638851,7.36004891 L7.44361108,1.34282634 C7.67684281,1.10959461 7.99493852,0.989308278 8.34023349,1.00074646 Z M8.4872346,2.49877551 L2.66190168,8.32410843 L8.57335896,14.2355657 L14.3986919,8.41023278 L14.1711831,2.72712965 L8.4872346,2.49877551 Z M11.4271541,4.00000003 C11.9794389,4.00000003 12.4271541,4.44771528 12.4271541,5.00000003 C12.4271541,5.55228478 11.9794389,6.00000003 11.4271541,6.00000003 C10.8748694,6.00000003 10.4271541,5.55228478 10.4271541,5.00000003 C10.4271541,4.44771528 10.8748694,4.00000003 11.4271541,4.00000003 Z" id="Combined-Shape" fill="rgb(117, 117, 127)"></path>
    </g>
</svg>