<?xml version="1.0" encoding="UTF-8"?>
<svg width="24px" height="24px" viewBox="0 0 24 24" version="1.1" xmlns="http://www.w3.org/2000/svg" xmlns:xlink="http://www.w3.org/1999/xlink">
    <title>Icon/common/trash</title>
    <g id="Icon/common/trash" stroke="none" stroke-width="1" fill="none" fill-rule="evenodd">
        <path d="M12.0002,1 C14.9932,1 17.3382,2.757 17.3382,5 L17.3382,5 L22.0002,5 C22.5532,5 23.0002,5.448 23.0002,6 C23.0002,6.552 22.5532,7 22.0002,7 L22.0002,7 L20.4892,7 C20.4882,7.022 20.4982,7.042 20.4962,7.065 L20.4962,7.065 L19.4962,18.115 C19.5002,20.768 17.2672,23 14.5242,23 L14.5242,23 L9.4752,23 C6.7322,23 4.5002,20.768 4.5002,18.025 L4.5002,18.025 L3.5042,7.065 C3.5022,7.042 3.5122,7.022 3.5112,7 L3.5112,7 L2.0002,7 C1.4472,7 1.0002,6.552 1.0002,6 C1.0002,5.448 1.4472,5 2.0002,5 L2.0002,5 L6.6622,5 C6.6622,2.757 9.0072,1 12.0002,1 Z M18.4932,7 L5.5072,7 L6.4962,17.935 C6.5002,19.666 7.8352,21 9.4752,21 L9.4752,21 L14.5242,21 C16.1652,21 17.5002,19.666 17.5002,18.025 L17.5002,18.025 L18.4932,7 Z M12,8.6665 C12.553,8.6665 13,9.1145 13,9.6665 L13,9.6665 L13,18.6665 C13,19.2185 12.553,19.6665 12,19.6665 C11.447,19.6665 11,19.2185 11,18.6665 L11,18.6665 L11,9.6665 C11,9.1145 11.447,8.6665 12,8.6665 Z M15.9961536,8.6664438 L16.1106,8.6732 C16.6596,8.7332 17.0546,9.2282 16.9936,9.7772 L16.9936,9.7772 L15.9936,18.7772 C15.9376,19.2882 15.5036,19.6662 15.0006,19.6662 C14.9636,19.6662 14.9266,19.6642 14.8896,19.6602 C14.3406,19.5992 13.9456,19.1052 14.0056,18.5562 L14.0056,18.5562 L15.0056,9.5562 C15.0676,9.0072 15.5736,8.6092 16.1106,8.6732 Z M7.89,8.6725 C8.446,8.6105 8.934,9.0075 8.994,9.5565 L8.994,9.5565 L9.994,18.5565 C10.055,19.1045 9.659,19.5995 9.11,19.6605 C9.073,19.6645 9.035,19.6665 8.999,19.6665 C8.496,19.6665 8.062,19.2885 8.006,18.7765 L8.006,18.7765 L7.006,9.7765 C6.945,9.2285 7.341,8.7335 7.89,8.6725 Z M12.0002,3 C10.2222,3 8.6622,3.935 8.6622,5 L8.6622,5 L15.3382,5 C15.3382,3.935 13.7782,3 12.0002,3 Z" id="Combined-Shape" fill="#000000"></path>
    </g>
</svg>