<?xml version="1.0" encoding="UTF-8"?>
<svg width="24px" height="24px" viewBox="0 0 24 24" version="1.1" xmlns="http://www.w3.org/2000/svg" xmlns:xlink="http://www.w3.org/1999/xlink">
    <title>Icon/common/view_more</title>
    <g id="Icon/common/view_more" stroke="none" stroke-width="1" fill="none" fill-rule="evenodd">
        <path d="M12.5,16.6669 C13.329,16.6669 14,17.3379 14,18.1669 C14,18.9949 13.329,19.6669 12.5,19.6669 C11.671,19.6669 11,18.9949 11,18.1669 C11,17.3379 11.671,16.6669 12.5,16.6669 Z M12.5,10.3334 C13.329,10.3334 14,11.0044 14,11.8334 C14,12.6624 13.329,13.3334 12.5,13.3334 C11.671,13.3334 11,12.6624 11,11.8334 C11,11.0044 11.671,10.3334 12.5,10.3334 Z M12.5,3.9999 C13.329,3.9999 14,4.6719 14,5.4999 C14,6.3289 13.329,6.9999 12.5,6.9999 C11.671,6.9999 11,6.3289 11,5.4999 C11,4.6719 11.671,3.9999 12.5,3.9999 Z" id="Combined-Shape" fill="#000000"></path>
    </g>
</svg>