<?xml version="1.0" encoding="UTF-8"?>
<svg width="30px" height="30px" viewBox="0 0 30 30" version="1.1" xmlns="http://www.w3.org/2000/svg" xmlns:xlink="http://www.w3.org/1999/xlink">
    <title>Icon/attachment/zip</title>
    <g id="Icon/attachment/zip" stroke="none" stroke-width="1" fill="none" fill-rule="evenodd">
        <rect id="Rectangle" fill="#FFECE0" x="0" y="0" width="30" height="30" rx="6"></rect>
        <g id="note" transform="translate(6.000000, 5.000000)" fill="#FF7D31" fill-rule="nonzero">
            <path d="M17,0 C17.5522847,0 18,0.44771525 18,1 L18,19 C18,19.5522847 17.5522847,20 17,20 L1,20 C0.44771525,20 0,19.5522847 0,19 L0,1 C0,0.44771525 0.44771525,0 1,0 L17,0 Z M8,2 L2,2 L2,18 L16,18 L16,2 L10,2 L10,2 C10,2.55228475 9.55228475,3 9,3 C8.44771525,3 8,2.55228475 8,2 Z M9,10 C10.6568542,10 12,11.3431458 12,13 C12,14.6568542 10.6568542,16 9,16 C7.34314575,16 6,14.6568542 6,13 C6,11.3431458 7.34314575,10 9,10 Z M9,12 C8.44771525,12 8,12.4477153 8,13 C8,13.5522847 8.44771525,14 9,14 C9.55228475,14 10,13.5522847 10,13 C10,12.4477153 9.55228475,12 9,12 Z M9,7 C9.55228475,7 10,7.44771525 10,8 C10,8.55228475 9.55228475,9 9,9 C8.44771525,9 8,8.55228475 8,8 C8,7.44771525 8.44771525,7 9,7 Z M9,4 C9.55228475,4 10,4.44771525 10,5 C10,5.55228475 9.55228475,6 9,6 C8.44771525,6 8,5.55228475 8,5 C8,4.44771525 8.44771525,4 9,4 Z" id="Combined-Shape"></path>
        </g>
    </g>
</svg>