<?xml version="1.0" encoding="UTF-8"?>
<svg width="24px" height="24px" viewBox="0 0 24 24" version="1.1" xmlns="http://www.w3.org/2000/svg" xmlns:xlink="http://www.w3.org/1999/xlink">
    <title>Icon/common/add_tag</title>
    <g id="Icon/common/add_tag" stroke="none" stroke-width="1" fill="none" fill-rule="evenodd">
        <path d="M9.9367,2.0313 C10.7577,2.0313 11.5697,2.2483 12.2827,2.6573 C12.7607,2.9323 12.9267,3.5443 12.6517,4.0223 C12.3757,4.5013 11.7647,4.6653 11.2857,4.3913 C10.8757,4.1563 10.4087,4.0313 9.9367,4.0313 L9.9367,4.0313 L6.7117,4.0313 C5.2167,4.0313 3.9997,5.2493 3.9997,6.7463 L3.9997,6.7463 L3.9997,9.9733 C3.9997,10.6883 4.2887,11.3873 4.7937,11.8923 L4.7937,11.8923 L12.0987,19.2023 C13.1247,20.2283 14.9097,20.2273 15.9327,19.2023 L15.9327,19.2023 L19.1587,15.9753 C19.9777,15.1553 20.1867,13.9043 19.6777,12.8633 C19.4357,12.3673 19.6407,11.7673 20.1367,11.5253 C20.6327,11.2823 21.2317,11.4883 21.4747,11.9843 C22.3587,13.7933 21.9957,15.9643 20.5737,17.3883 L20.5737,17.3883 L17.3477,20.6163 C16.4577,21.5063 15.2757,21.9983 14.0157,21.9983 C12.7567,21.9983 11.5737,21.5063 10.6837,20.6163 L10.6837,20.6163 L3.3797,13.3063 C2.5027,12.4293 1.9997,11.2143 1.9997,9.9733 L1.9997,9.9733 L1.9997,6.7463 C1.9997,4.1463 4.1137,2.0313 6.7117,2.0313 L6.7117,2.0313 Z M8.0488,5.7412 C9.3668,5.7412 10.4398,6.8132 10.4398,8.1332 C10.4398,9.4512 9.3668,10.5232 8.0488,10.5232 C6.7308,10.5232 5.6578,9.4512 5.6578,8.1332 C5.6578,6.8132 6.7308,5.7412 8.0488,5.7412 Z M18.5,0.9999 C19.053,0.9999 19.5,1.4469 19.5,1.9999 L19.5,1.9999 L19.5,4.5009 L22,4.5009 C22.553,4.5009 23,4.9479 23,5.5009 C23,6.0539 22.553,6.5009 22,6.5009 L22,6.5009 L19.5,6.5009 L19.5,9.0009 C19.5,9.5539 19.053,10.0009 18.5,10.0009 C17.947,10.0009 17.5,9.5539 17.5,9.0009 L17.5,9.0009 L17.5,6.5009 L15,6.5009 C14.447,6.5009 14,6.0539 14,5.5009 C14,4.9479 14.447,4.5009 15,4.5009 L15,4.5009 L17.5,4.5009 L17.5,1.9999 C17.5,1.4469 17.947,0.9999 18.5,0.9999 Z M8.0488,7.4402 C7.6678,7.4402 7.3578,7.7512 7.3578,8.1332 C7.3578,8.5132 7.6678,8.8242 8.0488,8.8242 C8.4298,8.8242 8.7398,8.5132 8.7398,8.1332 C8.7398,7.7512 8.4298,7.4402 8.0488,7.4402 Z" id="Combined-Shape" fill="#000000"></path>
    </g>
</svg>