<?xml version="1.0" encoding="UTF-8"?>
<svg width="24px" height="24px" viewBox="0 0 24 24" version="1.1" xmlns="http://www.w3.org/2000/svg" xmlns:xlink="http://www.w3.org/1999/xlink">
    <title>Icon/attachment/audio</title>
    <g id="Icon/attachment/audio" stroke="none" stroke-width="1" fill="none" fill-rule="evenodd">
        <path d="M17.014,0.9997 C20.314,0.9997 23,3.6857 23,6.9867 L23,6.9867 L23,17.0137 C23,20.3147 20.314,22.9997 17.014,22.9997 L17.014,22.9997 L6.986,22.9997 C3.686,22.9997 1,20.3147 1,17.0137 L1,17.0137 L1,6.9867 C1,3.6857 3.686,0.9997 6.986,0.9997 L6.986,0.9997 Z M17.014,2.9997 L6.986,2.9997 C4.788,2.9997 3,4.7877 3,6.9867 L3,6.9867 L3,17.0137 C3,19.2117 4.788,20.9997 6.986,20.9997 L6.986,20.9997 L17.014,20.9997 C19.212,20.9997 21,19.2117 21,17.0137 L21,17.0137 L21,6.9867 C21,4.7877 19.212,2.9997 17.014,2.9997 L17.014,2.9997 Z M13.167,5.9265 C14.095,5.6175 15.078,5.7675 15.869,6.3385 C16.661,6.9095 17.115,7.7955 17.115,8.7725 L17.115,8.7725 L17.115,13.9985 C17.115,14.0715 17.089,14.1345 17.074,14.2035 C17.095,14.3375 17.115,14.4725 17.115,14.6135 C17.115,16.0555 15.942,17.2285 14.5,17.2285 C13.058,17.2285 11.885,16.0555 11.885,14.6135 C11.885,13.1705 13.058,11.9985 14.5,11.9985 C14.713,11.9985 14.917,12.0305 15.115,12.0795 L15.115,12.0795 L15.115,8.7725 C15.115,8.4475 14.964,8.1515 14.7,7.9605 C14.437,7.7715 14.109,7.7245 13.8,7.8235 L13.8,7.8235 L11.8,8.4905 C11.391,8.6265 11.115,9.0085 11.115,9.4395 L11.115,9.4395 L11.115,14.9985 C11.115,15.0715 11.089,15.1345 11.074,15.2035 C11.095,15.3375 11.115,15.4725 11.115,15.6135 C11.115,17.0555 9.942,18.2285 8.5,18.2285 C7.058,18.2285 5.885,17.0555 5.885,15.6135 C5.885,14.1705 7.058,12.9985 8.5,12.9985 C8.713,12.9985 8.917,13.0305 9.115,13.0795 L9.115,13.0795 L9.115,9.4395 C9.115,8.1465 9.939,7.0015 11.167,6.5935 L11.167,6.5935 Z M8.5,14.9985 C8.161,14.9985 7.885,15.2745 7.885,15.6135 C7.885,15.9525 8.161,16.2285 8.5,16.2285 C8.839,16.2285 9.115,15.9525 9.115,15.6135 C9.115,15.2745 8.839,14.9985 8.5,14.9985 Z M14.5,13.9985 C14.161,13.9985 13.885,14.2745 13.885,14.6135 C13.885,14.9525 14.161,15.2285 14.5,15.2285 C14.839,15.2285 15.115,14.9525 15.115,14.6135 C15.115,14.2745 14.839,13.9985 14.5,13.9985 Z" id="Combined-Shape" fill="#009F92"></path>
    </g>
</svg>