<?xml version="1.0" encoding="UTF-8"?>
<svg width="24px" height="24px" viewBox="0 0 24 24" version="1.1" xmlns="http://www.w3.org/2000/svg" xmlns:xlink="http://www.w3.org/1999/xlink">
    <title>Icon/attachment/cell</title>
    <g id="Icon/attachment/cell" stroke="none" stroke-width="1" fill="none" fill-rule="evenodd">
        <path d="M17,1.0004 C20.309,1.0004 23,3.6914 23,7.0004 L23,7.0004 L23,17.0004 C23,20.3084 20.309,23.0004 17,23.0004 L17,23.0004 L11.455,23.0004 C10.902,23.0004 10.455,22.5524 10.455,22.0004 C10.455,21.4474 10.902,21.0004 11.455,21.0004 L11.455,21.0004 L17,21.0004 C19.206,21.0004 21,19.2054 21,17.0004 L21,17.0004 L21,7.0004 C21,4.7944 19.206,3.0004 17,3.0004 L17,3.0004 L7,3.0004 C4.794,3.0004 3,4.7944 3,7.0004 L3,7.0004 L3,11.5454 C3,12.0974 2.552,12.5454 2,12.5454 C1.448,12.5454 1,12.0974 1,11.5454 L1,11.5454 L1,7.0004 C1,3.6914 3.691,1.0004 7,1.0004 L7,1.0004 Z M3.9864,13.3768 C5.1404,12.8528 6.6064,12.8118 7.8884,13.3258 C8.4954,13.5688 9.0564,13.9448 9.5564,14.4448 C9.7864,14.6868 9.9004,14.9658 9.9004,15.2798 C9.9004,15.4458 9.8664,15.6038 9.7994,15.7498 C9.7344,15.8918 9.6464,16.0178 9.5354,16.1248 C9.4244,16.2328 9.2954,16.3188 9.1504,16.3798 C8.8644,16.5028 8.5324,16.5058 8.2484,16.3928 C8.1094,16.3398 7.9784,16.2528 7.8624,16.1368 C7.6034,15.8778 7.3114,15.6858 6.9964,15.5688 C6.3544,15.3268 5.6214,15.3218 5.0004,15.5848 C4.6874,15.7178 4.4094,15.9018 4.1744,16.1318 C3.9414,16.3608 3.7524,16.6378 3.6134,16.9558 C3.4754,17.2718 3.4044,17.6158 3.4044,17.9808 C3.4044,18.3308 3.4704,18.6668 3.6014,18.9798 C3.7314,19.2938 3.9144,19.5728 4.1444,19.8118 C4.3734,20.0498 4.6484,20.2408 4.9644,20.3808 C5.5664,20.6458 6.3534,20.6518 6.9804,20.4148 C7.2774,20.3008 7.5664,20.1048 7.8414,19.8298 C7.9554,19.7168 8.0904,19.6328 8.2424,19.5788 C8.5484,19.4668 8.8964,19.4748 9.1714,19.5958 C9.3134,19.6578 9.4404,19.7448 9.5474,19.8538 C9.6524,19.9628 9.7354,20.0898 9.7934,20.2318 C9.8504,20.3728 9.8794,20.5238 9.8794,20.6798 C9.8794,20.8358 9.8514,20.9878 9.7944,21.1328 C9.7364,21.2808 9.6514,21.4128 9.5414,21.5228 C9.0404,22.0188 8.4744,22.3928 7.8584,22.6348 C7.2454,22.8778 6.6054,22.9998 5.9554,22.9998 C5.5034,22.9998 5.0624,22.9388 4.6434,22.8188 C4.2284,22.6988 3.8304,22.5298 3.4624,22.3148 C3.0924,22.0978 2.7544,21.8348 2.4564,21.5328 C2.1584,21.2308 1.8974,20.8908 1.6804,20.5208 C1.4624,20.1498 1.2934,19.7468 1.1764,19.3218 C1.0594,18.8968 1.0004,18.4498 1.0004,17.9938 C1.0004,17.3348 1.1254,16.6948 1.3714,16.0908 C1.6194,15.4878 1.9674,14.9488 2.4064,14.4878 C2.8494,14.0238 3.3804,13.6508 3.9864,13.3768 Z M16.7666,15.8 C17.3736,15.8 17.8666,16.292 17.8666,16.9 C17.8666,17.507 17.3736,18 16.7666,18 C16.1596,18 15.6666,17.507 15.6666,16.9 C15.6666,16.292 16.1596,15.8 16.7666,15.8 Z M12.4336,12.4665 C13.0406,12.4665 13.5336,12.9585 13.5336,13.5665 C13.5336,14.1745 13.0406,14.6665 12.4336,14.6665 C11.8256,14.6665 11.3336,14.1745 11.3336,13.5665 C11.3336,12.9585 11.8256,12.4665 12.4336,12.4665 Z M16.7666,12.4665 C17.3736,12.4665 17.8666,12.9585 17.8666,13.5665 C17.8666,14.1745 17.3736,14.6665 16.7666,14.6665 C16.1596,14.6665 15.6666,14.1745 15.6666,13.5665 C15.6666,12.9585 16.1596,12.4665 16.7666,12.4665 Z M12.4336,9.1335 C13.0406,9.1335 13.5336,9.6255 13.5336,10.2335 C13.5336,10.8405 13.0406,11.3335 12.4336,11.3335 C11.8256,11.3335 11.3336,10.8405 11.3336,10.2335 C11.3336,9.6255 11.8256,9.1335 12.4336,9.1335 Z M16.7666,9.1335 C17.3736,9.1335 17.8666,9.6255 17.8666,10.2335 C17.8666,10.8405 17.3736,11.3335 16.7666,11.3335 C16.1596,11.3335 15.6666,10.8405 15.6666,10.2335 C15.6666,9.6255 16.1596,9.1335 16.7666,9.1335 Z M8.1001,9.1333 C8.7071,9.1333 9.2001,9.6263 9.2001,10.2333 C9.2001,10.8413 8.7071,11.3333 8.1001,11.3333 C7.4931,11.3333 7.0001,10.8413 7.0001,10.2333 C7.0001,9.6263 7.4931,9.1333 8.1001,9.1333 Z M8.1001,5.7998 C8.7071,5.7998 9.2001,6.2928 9.2001,6.8998 C9.2001,7.5078 8.7071,7.9998 8.1001,7.9998 C7.4931,7.9998 7.0001,7.5078 7.0001,6.8998 C7.0001,6.2928 7.4931,5.7998 8.1001,5.7998 Z M12.4336,5.8 C13.0406,5.8 13.5336,6.292 13.5336,6.9 C13.5336,7.507 13.0406,8 12.4336,8 C11.8256,8 11.3336,7.507 11.3336,6.9 C11.3336,6.292 11.8256,5.8 12.4336,5.8 Z M16.7666,5.8 C17.3736,5.8 17.8666,6.292 17.8666,6.9 C17.8666,7.507 17.3736,8 16.7666,8 C16.1596,8 15.6666,7.507 15.6666,6.9 C15.6666,6.292 16.1596,5.8 16.7666,5.8 Z" id="Combined-Shape" fill="#35BC68"></path>
    </g>
</svg>