<?xml version="1.0" encoding="UTF-8"?>
<svg width="24px" height="24px" viewBox="0 0 24 24" version="1.1" xmlns="http://www.w3.org/2000/svg" xmlns:xlink="http://www.w3.org/1999/xlink">
    <title>Icon/common/edit</title>
    <g id="Icon/common/edit" stroke="none" stroke-width="1" fill="none" fill-rule="evenodd">
        <path d="M20.2102813,3.79282884 C20.7143643,4.29783592 20.9915095,4.96983739 20.9915095,5.68409044 C20.9915095,6.23537308 20.8228124,6.75848799 20.5155427,7.20212967 L16.8102317,3.49002578 C17.8384806,2.79991649 19.3175926,2.89850353 20.2102813,3.79282884 L20.2102813,3.79282884 Z M15.3542151,4.8762803 L17.0431943,6.56835584 L14.7848625,8.83183382 C14.3932442,9.22417 14.3932442,9.86096181 14.7848625,10.254304 C14.9806716,10.4504721 15.2377338,10.5490591 15.4947961,10.5490591 C15.7518583,10.5490591 16.0089205,10.4504721 16.2047296,10.254304 L18.4630615,7.990826 L19.1288125,8.65779751 L11.3818004,16.419012 C11.1337755,15.5800162 10.6477672,14.7540982 9.95791661,14.0639889 C9.26404942,13.3688497 8.44165112,12.8849684 7.60619887,12.6374948 L15.3542151,4.8762803 Z M5.47639812,19.6331508 L4.45316995,18.6090527 C4.42907037,18.583903 4.39593344,18.574849 4.3708297,18.5527173 L5.88006616,14.5347923 C6.52673833,14.3164925 7.61925281,14.566984 8.53804945,15.4864591 C9.48998302,16.4401378 9.69683779,17.5205713 9.49199132,18.1442852 L5.47639812,19.6331508 Z M10.6748792,19.8474267 C10.7341241,19.8252949 10.7843315,19.7810313 10.8395597,19.7458217 C10.8988045,19.7086 10.9630701,19.6794263 11.0112693,19.6321448 C11.0152859,19.6281208 11.0203066,19.6271148 11.0233191,19.6230909 L21.6301485,8.9978222 C22.5137999,8.11255082 22.9998082,6.93554227 22.9998082,5.68409044 C22.9998082,4.43263861 22.5137999,3.25563006 21.6301485,2.37035867 C19.8066133,0.543480443 16.839352,0.543480443 15.0148127,2.37035867 L4.40798323,12.9956273 C4.40497078,12.9986453 4.40497078,13.0026692 4.40195833,13.0056872 C4.35275502,13.0559867 4.32263054,13.1213761 4.28547701,13.1817355 C4.25133593,13.236059 4.20715336,13.2843465 4.18506208,13.341688 C4.18405793,13.3467179 4.18004133,13.3487299 4.17803303,13.3527538 L1.06416594,21.6390952 C0.92559333,22.0072877 1.01496262,22.4237676 1.29210784,22.7034329 C1.48390036,22.896583 1.74196674,23.0002 2.00404972,23.0002 L14.6493023,23.0002 C15.1483645,23.0002 15.5530367,22.59378 15.5530367,22.0938028 C15.5530367,21.5938257 15.1483645,21.1894176 14.6493023,21.1894176 L7.06697067,21.1894176 L10.6618253,19.8564806 C10.666846,19.8544686 10.6708626,19.8494386 10.6748792,19.8474267 L10.6748792,19.8474267 Z" id="Fill-1" fill="#000000"></path>
    </g>
</svg>