<?xml version="1.0" encoding="UTF-8"?>
<svg width="24px" height="24px" viewBox="0 0 24 24" version="1.1" xmlns="http://www.w3.org/2000/svg" xmlns:xlink="http://www.w3.org/1999/xlink">
    <title>Icon/attachment/etc</title>
    <g id="Icon/attachment/etc" stroke="none" stroke-width="1" fill="none" fill-rule="evenodd">
        <path d="M17.014,0.9997 C20.314,0.9997 23,3.6857 23,6.9867 L23,6.9867 L23,17.0137 C23,20.3147 20.314,22.9997 17.014,22.9997 L17.014,22.9997 L6.986,22.9997 C3.686,22.9997 1,20.3147 1,17.0137 L1,17.0137 L1,6.9867 C1,3.6857 3.686,0.9997 6.986,0.9997 L6.986,0.9997 Z M17.014,2.9997 L6.986,2.9997 C4.788,2.9997 3,4.7877 3,6.9867 L3,6.9867 L3,17.0137 C3,19.2117 4.788,20.9997 6.986,20.9997 L6.986,20.9997 L17.014,20.9997 C19.212,20.9997 21,19.2117 21,17.0137 L21,17.0137 L21,6.9867 C21,4.7877 19.212,2.9997 17.014,2.9997 L17.014,2.9997 Z M16.833,10.5 C17.662,10.5 18.333,11.172 18.333,12 C18.333,12.828 17.662,13.5 16.833,13.5 C16.005,13.5 15.333,12.828 15.333,12 C15.333,11.172 16.005,10.5 16.833,10.5 Z M12,10.5 C12.828,10.5 13.5,11.172 13.5,12 C13.5,12.828 12.828,13.5 12,13.5 C11.172,13.5 10.5,12.828 10.5,12 C10.5,11.172 11.172,10.5 12,10.5 Z M7.167,10.5 C7.995,10.5 8.667,11.172 8.667,12 C8.667,12.828 7.995,13.5 7.167,13.5 C6.338,13.5 5.667,12.828 5.667,12 C5.667,11.172 6.338,10.5 7.167,10.5 Z" id="Combined-Shape" fill="#FF868E"></path>
    </g>
</svg>