<?xml version="1.0" encoding="UTF-8"?>
<svg width="24px" height="24px" viewBox="0 0 24 24" version="1.1" xmlns="http://www.w3.org/2000/svg" xmlns:xlink="http://www.w3.org/1999/xlink">
    <title>Icon/common/exit</title>
    <g id="Icon/common/exit" stroke="none" stroke-width="1" fill="none" fill-rule="evenodd">
        <path d="M17.566,1.0003 C20.562,1.0003 23,3.4423 23,6.4433 L23,6.4433 L23,17.5513 C23,20.5533 20.562,22.9953 17.566,22.9953 L17.566,22.9953 L6.483,22.9953 C3.487,22.9953 1.05,20.5533 1.05,17.5513 C1.05,16.9993 1.497,16.5513 2.05,16.5513 C2.603,16.5513 3.05,16.9993 3.05,17.5513 C3.05,19.4503 4.59,20.9953 6.483,20.9953 L6.483,20.9953 L17.566,20.9953 C19.46,20.9953 21,19.4503 21,17.5513 L21,17.5513 L21,6.4433 C21,4.5453 19.46,3.0003 17.566,3.0003 L17.566,3.0003 L6.483,3.0003 C4.59,3.0003 3.05,4.5453 3.05,6.4433 C3.05,6.9953 2.603,7.4433 2.05,7.4433 C1.497,7.4433 1.05,6.9953 1.05,6.4433 C1.05,3.4423 3.487,1.0003 6.483,1.0003 L6.483,1.0003 Z M8.729,7.3564 C9.119,6.9664 9.754,6.9694 10.144,7.3614 L10.144,7.3614 L13.776,11.0214 C14.314,11.5684 14.312,12.4504 13.771,12.9894 L13.771,12.9894 L10.125,16.6364 C9.93,16.8314 9.674,16.9294 9.418,16.9294 C9.162,16.9294 8.906,16.8314 8.711,16.6364 C8.32,16.2454 8.32,15.6124 8.711,15.2224 L8.711,15.2224 L10.93,13.0034 L2,13.0034 C1.447,13.0034 1,12.5554 1,12.0034 C1,11.4514 1.447,11.0034 2,11.0034 L2,11.0034 L10.94,11.0034 L8.724,8.7704 C8.335,8.3784 8.337,7.7454 8.729,7.3564 Z" id="Combined-Shape" fill="#000000"></path>
    </g>
</svg>