<?xml version="1.0" encoding="UTF-8"?>
<svg width="24px" height="24px" viewBox="0 0 24 24" version="1.1" xmlns="http://www.w3.org/2000/svg" xmlns:xlink="http://www.w3.org/1999/xlink">
    <title>Icon/attachment/file_download</title>
    <g id="Icon/attachment/file_download" stroke="none" stroke-width="1" fill="none" fill-rule="evenodd">
        <path d="M13.8167,1 C14.8617,1 15.8487,1.4 16.5967,2.128 L16.5967,2.128 L21.7887,7.168 C22.5587,7.916 22.9997,8.959 22.9997,10.031 L22.9997,10.031 L22.9997,17.014 C22.9997,20.314 20.3147,23 17.0137,23 L17.0137,23 L6.9867,23 C3.6857,23 0.9997,20.314 0.9997,17.014 L0.9997,17.014 L0.9997,6.986 C0.9997,3.686 3.6857,1 6.9867,1 L6.9867,1 Z M13.8177,3 L6.9867,3 C4.7877,3 2.9997,4.788 2.9997,6.986 L2.9997,6.986 L2.9997,17.014 C2.9997,19.212 4.7877,21 6.9867,21 L6.9867,21 L17.0137,21 C19.2117,21 20.9997,19.212 20.9997,17.014 L20.9997,17.014 L20.9997,10.113 L17.2667,10.058 C15.3647,10.029 13.8177,8.459 13.8177,6.558 L13.8177,6.558 L13.8177,3 Z M16.5,14.6504 C16.97,14.6504 17.35,15.0304 17.35,15.5004 C17.35,16.7964 16.296,17.8494 15,17.8494 L15,17.8494 L9,17.8494 C7.704,17.8494 6.65,16.7964 6.65,15.5004 C6.65,15.0304 7.03,14.6504 7.5,14.6504 C7.97,14.6504 8.35,15.0304 8.35,15.5004 C8.35,15.8584 8.642,16.1504 9,16.1504 L9,16.1504 L15,16.1504 C15.358,16.1504 15.65,15.8584 15.65,15.5004 C15.65,15.0304 16.03,14.6504 16.5,14.6504 Z M11.9259,8.1507 C12.3959,8.1507 12.7759,8.5307 12.7759,8.9997 L12.7759,8.9997 L12.7759,12.8487 L14.5759,11.1517 C14.9169,10.8277 15.4549,10.8437 15.7769,11.1867 C16.0999,11.5287 16.0839,12.0667 15.7419,12.3877 L15.7419,12.3877 L12.6989,15.2557 C12.5739,15.3737 12.4249,15.4517 12.2659,15.5067 C12.1609,15.5527 12.0469,15.5797 11.9259,15.5797 L11.9259,15.5797 L11.9139,15.5777 C11.9079,15.5777 11.9019,15.5807 11.8969,15.5807 L11.8969,15.5807 L11.8849,15.5807 C11.5689,15.5807 11.2639,15.4507 11.0479,15.2217 L11.0479,15.2217 L8.1789,12.3727 C7.8459,12.0417 7.8439,11.5037 8.1739,11.1707 C8.5069,10.8357 9.0449,10.8367 9.3759,11.1657 L9.3759,11.1657 L11.0759,12.8547 L11.0759,8.9997 C11.0759,8.5307 11.4559,8.1507 11.9259,8.1507 Z M15.8177,4.159 L15.8177,6.558 C15.8177,7.372 16.4807,8.046 17.2957,8.058 L17.2957,8.058 L19.8727,8.096 L15.8177,4.159 Z" id="Combined-Shape" fill="#B052E0"></path>
    </g>
</svg>