<?xml version="1.0" encoding="UTF-8"?>
<svg width="24px" height="24px" viewBox="0 0 24 24" version="1.1" xmlns="http://www.w3.org/2000/svg" xmlns:xlink="http://www.w3.org/1999/xlink">
    <title>Icon/attachment/image</title>
    <g id="Icon/attachment/image" stroke="none" stroke-width="1" fill="none" fill-rule="evenodd">
        <path d="M17.0133,1 C20.3143,1 23.0003,3.686 23.0003,6.986 L23.0003,6.986 L23.0003,17.014 C23.0003,17.177 22.9883,17.337 22.9753,17.497 C22.9943,17.651 22.9753,17.806 22.9183,17.958 C22.4633,20.811 19.9923,23 17.0133,23 L17.0133,23 L6.9863,23 C3.8773,23 1.3163,20.617 1.0283,17.582 C1.0163,17.507 1.0123,17.434 1.0173,17.358 C1.0103,17.243 1.0003,17.13 1.0003,17.014 L1.0003,17.014 L1.0003,6.986 C1.0003,3.686 3.6853,1 6.9863,1 L6.9863,1 Z M7.3113,13.027 L3.0713,17.726 C3.4093,19.584 5.0313,21 6.9863,21 L6.9863,21 L17.0133,21 C18.8343,21 20.3563,19.767 20.8313,18.097 L20.8313,18.097 L16.6543,15.709 L13.3403,17.921 C12.4593,18.507 11.2703,18.305 10.6333,17.458 L10.6333,17.458 L7.3113,13.027 Z M17.0133,3 L6.9863,3 C4.7883,3 3.0003,4.788 3.0003,6.986 L3.0003,6.986 L3.0003,14.821 L5.8313,11.687 C6.2323,11.243 6.8063,10.997 7.4033,11.03 C8.0023,11.058 8.5513,11.348 8.9103,11.827 L8.9103,11.827 L12.2343,16.258 L15.5483,14.045 C16.1803,13.624 16.9843,13.596 17.6463,13.973 L17.6463,13.973 L21.0003,15.89 L21.0003,6.986 C21.0003,4.788 19.2123,3 17.0133,3 L17.0133,3 Z M12,5.0771 C13.697,5.0771 15.077,6.4571 15.077,8.1541 C15.077,9.8501 13.697,11.2311 12,11.2311 C10.303,11.2311 8.923,9.8501 8.923,8.1541 C8.923,6.4571 10.303,5.0771 12,5.0771 Z M12,7.0771 C11.406,7.0771 10.923,7.5601 10.923,8.1541 C10.923,8.7471 11.406,9.2311 12,9.2311 C12.594,9.2311 13.077,8.7471 13.077,8.1541 C13.077,7.5601 12.594,7.0771 12,7.0771 Z" id="Combined-Shape" fill="#47BDD6"></path>
    </g>
</svg>