<?xml version="1.0" encoding="UTF-8"?>
<svg width="20px" height="20px" viewBox="0 0 24 24" version="1.1" xmlns="http://www.w3.org/2000/svg" xmlns:xlink="http://www.w3.org/1999/xlink">
    <title>Icon/common/lock</title>
    <g id="Icon/common/lock" stroke="none" stroke-width="1" fill="none" fill-rule="evenodd">
        <path d="M12.49,0.9997 C16.251,0.9997 19.311,4.2457 19.311,8.2357 L19.311,8.2357 L19.311,10.3417 C20.87,10.8827 22,12.3537 22,14.0977 L22,14.0977 L22,19.0097 C22,21.2097 20.213,22.9997 18.016,22.9997 L18.016,22.9997 L5.984,22.9997 C3.787,22.9997 2,21.2097 2,19.0097 L2,19.0097 L2,14.0977 C2,12.3507 3.134,10.8787 4.697,10.3397 L4.697,10.3397 L4.697,8.2357 C4.697,4.2457 7.757,0.9997 11.519,0.9997 L11.519,0.9997 Z M18.016,12.1067 L5.984,12.1067 C4.89,12.1067 4,12.9997 4,14.0977 L4,14.0977 L4,19.0097 C4,20.1067 4.89,20.9997 5.984,20.9997 L5.984,20.9997 L18.016,20.9997 C19.11,20.9997 20,20.1067 20,19.0097 L20,19.0097 L20,14.0977 C20,12.9997 19.11,12.1067 18.016,12.1067 L18.016,12.1067 Z M12,12.96 C12.969,12.96 13.758,13.758 13.758,14.74 C13.758,15.345 13.457,15.879 13,16.201 L13,16.201 L13,18.731 C13,19.284 12.552,19.731 12,19.731 C11.448,19.731 11,19.284 11,18.731 L11,18.731 L11,16.201 C10.543,15.879 10.242,15.345 10.242,14.74 C10.242,13.758 11.031,12.96 12,12.96 Z M12.49,2.9997 L11.519,2.9997 C8.86,2.9997 6.697,5.3487 6.697,8.2357 L6.697,8.2357 L6.697,10.1067 L17.311,10.1067 L17.311,8.2357 C17.311,5.3487 15.148,2.9997 12.49,2.9997 L12.49,2.9997 Z" id="Combined-Shape" fill="#999999"></path>
    </g>
</svg>