<?xml version="1.0" encoding="UTF-8"?>
<svg width="24px" height="24px" viewBox="0 0 24 24" version="1.1" xmlns="http://www.w3.org/2000/svg" xmlns:xlink="http://www.w3.org/1999/xlink">
    <title>Icon/attachment/movie_1</title>
    <g id="Icon/attachment/movie_1" stroke="none" stroke-width="1" fill="none" fill-rule="evenodd">
        <path d="M17.014,0.9997 C20.314,0.9997 23,3.6857 23,6.9867 L23,6.9867 L23,17.0137 C23,20.3147 20.314,22.9997 17.014,22.9997 L17.014,22.9997 L6.986,22.9997 C3.686,22.9997 1,20.3147 1,17.0137 L1,17.0137 L1,6.9867 C1,3.6857 3.686,0.9997 6.986,0.9997 L6.986,0.9997 Z M17.014,2.9997 L6.986,2.9997 C4.788,2.9997 3,4.7877 3,6.9867 L3,6.9867 L3,17.0137 C3,19.2117 4.788,20.9997 6.986,20.9997 L6.986,20.9997 L17.014,20.9997 C19.212,20.9997 21,19.2117 21,17.0137 L21,17.0137 L21,6.9867 C21,4.7877 19.212,2.9997 17.014,2.9997 L17.014,2.9997 Z M8.4355,7.0547 C8.7445,6.8767 9.1265,6.8767 9.4355,7.0547 L9.4355,7.0547 L16.4995,11.1337 C16.8095,11.3127 16.9995,11.6427 16.9995,11.9997 C16.9995,12.3577 16.8095,12.6877 16.4995,12.8667 L16.4995,12.8667 L9.4355,16.9457 C9.2815,17.0347 9.1085,17.0787 8.9355,17.0787 C8.7625,17.0787 8.5895,17.0347 8.4355,16.9457 C8.1255,16.7667 7.9355,16.4367 7.9355,16.0787 L7.9355,16.0787 L7.9355,7.9207 C7.9355,7.5637 8.1255,7.2337 8.4355,7.0547 Z M9.9355,9.6537 L9.9355,14.3467 L13.9995,11.9997 L9.9355,9.6537 Z" id="Combined-Shape" fill="#0087E1"></path>
    </g>
</svg>