<?xml version="1.0" encoding="UTF-8"?>
<svg width="24px" height="24px" viewBox="0 0 24 24" version="1.1" xmlns="http://www.w3.org/2000/svg" xmlns:xlink="http://www.w3.org/1999/xlink">
    <title>Icon/apps/note_active</title>
    <g id="Icon/apps/note_active" stroke="none" stroke-width="1" fill="none" fill-rule="evenodd">
        <path d="M15,1 C17.761,1 20,3.238 20,6 L20,6 L20,9.594 C20,10.389 19.684,11.151 19.122,11.714 L19.122,11.714 L14.166,16.675 C13.992,16.848 13.869,17.065 13.808,17.303 L13.808,17.303 L13.044,20.301 C13.014,20.415 13,20.532 13,20.65 C13,20.758 13.014,20.866 13.041,20.971 C13.095,21.188 13.203,21.392 13.354,21.558 C13.484,21.701 13.673,21.77 13.813,21.902 C13.829,21.918 13.844,21.933 13.858,21.949 C14.088,22.206 14.018,22.565 13.723,22.729 C13.613,22.789 13.497,22.839 13.378,22.878 C13.142,22.958 12.892,23 12.643,23 L12.643,23 L6,23 C3.239,23 1,20.762 1,18 L1,18 L1,6 C1,3.238 3.239,1 6,1 L6,1 Z M20.0947,13.2477 C20.4327,12.9087 20.9817,12.9077 21.3217,13.2447 L21.3217,13.2447 L21.3247,13.2477 L22.7427,14.6797 C23.0837,15.0167 23.0857,15.5667 22.7497,15.9077 C22.7467,15.9087 22.7447,15.9107 22.7427,15.9137 L22.7427,15.9137 L18.4117,20.2587 C18.3007,20.3687 18.1617,20.4487 18.0107,20.4887 L18.0107,20.4887 L16.0877,20.9797 C16.0167,20.9967 15.9447,21.0067 15.8717,21.0077077 C15.3917,21.0097 15.0017,20.6227 14.9997,20.1437 C14.9997,20.0687 15.0097,19.9926978 15.0287,19.9207 L15.0287,19.9207 L15.5197,17.9937 C15.5587,17.8447 15.6377,17.7087 15.7457,17.5997 L15.7457,17.5997 Z M11.5,15.469 L7,15.469 C6.448,15.469 6,15.916 6,16.469 C6,17.021 6.448,17.469 7,17.469 L7,17.469 L11.5,17.469 C12.052,17.469 12.5,17.021 12.5,16.469 C12.5,15.916 12.052,15.469 11.5,15.469 L11.5,15.469 Z M14,11 L7,11 C6.448,11 6,11.447 6,12 C6,12.553 6.448,13 7,13 L7,13 L14,13 C14.552,13 15,12.553 15,12 C15,11.447 14.552,11 14,11 L14,11 Z M14,6.531 L7,6.531 C6.448,6.531 6,6.979 6,7.531 C6,8.084 6.448,8.531 7,8.531 L7,8.531 L14,8.531 C14.552,8.531 15,8.084 15,7.531 C15,6.979 14.552,6.531 14,6.531 L14,6.531 Z" id="Combined-Shape" fill="#000000"></path>
    </g>
</svg>