<?xml version="1.0" encoding="UTF-8"?>
<svg width="40px" height="40px" viewBox="0 0 40 40" version="1.1" xmlns="http://www.w3.org/2000/svg" xmlns:xlink="http://www.w3.org/1999/xlink">
    <!-- Generator: Sketch 63.1 (92452) - https://sketch.com -->
    <title>Icon/app_planet/TeeNote</title>
    <desc>Created with Sketch.</desc>
    <defs>
        <circle id="path-1" cx="20" cy="20" r="20"></circle>
        <filter x="-20.0%" y="-20.0%" width="140.0%" height="140.0%" filterUnits="objectBoundingBox" id="filter-3">
            <feOffset dx="0" dy="0" in="SourceAlpha" result="shadowOffsetOuter1"></feOffset>
            <feGaussianBlur stdDeviation="1" in="shadowOffsetOuter1" result="shadowBlurOuter1"></feGaussianBlur>
            <feColorMatrix values="0 0 0 0 0   0 0 0 0 0.449221193   0 0 0 0 0.738507699  0 0 0 1 0" type="matrix" in="shadowBlurOuter1" result="shadowMatrixOuter1"></feColorMatrix>
            <feMerge>
                <feMergeNode in="shadowMatrixOuter1"></feMergeNode>
                <feMergeNode in="SourceGraphic"></feMergeNode>
            </feMerge>
        </filter>
    </defs>
    <g id="Icon/app_planet/TeeNote" stroke="none" stroke-width="1" fill="none" fill-rule="evenodd">
        <g id="Group-2">
            <g id="Group">
                <mask id="mask-2" fill="white">
                    <use xlink:href="#path-1"></use>
                </mask>
                <use id="Oval" fill="#1EA8DF" xlink:href="#path-1"></use>
                <path d="M30.2674864,28.5651163 C32.1620013,28.8180521 35.8459876,28.1984249 38.2583669,27.9221149 C38.4371898,27.9016328 37.0788036,31.4377876 33.5358043,34.71428 C32.2764541,35.8789009 30.4660944,37.0683765 28.104725,38.2827069 C23.3480717,34.5292361 19.411693,32.4983871 16.295589,32.19016 C13.1794849,31.8819329 9.96579532,32.7915871 6.65452026,34.9191225 C6.07508216,34.3513228 5.66080219,33.9456821 5.41168034,33.7022004 C5.16255849,33.4587187 4.83170318,33.0689329 4.4191144,32.5328432 C6.61342804,29.1075672 10.4653048,27.0323459 15.9747446,26.3071794 C18.9157904,25.9200715 26.5120008,28.0637232 30.2674864,28.5651163 Z M36.2762913,8.40504532 C37.6298473,10.2563194 38.6529185,12.5003954 39.3455047,15.1372733 C40.038091,17.7741512 40.1657587,20.2053072 39.7285078,22.4307411 C38.015963,23.075421 36.0450505,23.3738791 33.8157703,23.3261155 C30.47185,23.2544701 27.302747,19.6880702 29.2957788,17.6745606 C30.6244667,16.3322209 32.9513042,13.2423825 36.2762913,8.40504532 Z M11.3133953,2.0686971 C18.4620509,-1.24913664 25.3877558,-0.576045104 32.0905098,4.08797172 C31.1587485,6.85505728 28.5638835,9.37616389 24.3059148,11.6512916 C20.3303252,13.7755377 16.2434004,12.9639842 11.6381726,14.0629582 C7.08121503,15.1504132 3.20351857,17.5672385 0.00508325094,21.3134341 C-0.0380355602,18.5142376 0.193162974,16.3144293 0.698678854,14.7140091 C2.68300461,8.43180305 6.15333106,4.46358591 11.3133953,2.0686971 Z" id="Combined-Shape" fill="#008CC8" mask="url(#mask-2)"></path>
                <circle id="Oval-Copy-3" fill="#1EA8DF" style="mix-blend-mode: screen;" opacity="0.597470238" mask="url(#mask-2)" cx="20" cy="10" r="20"></circle>
                <ellipse id="Oval" fill="#FFFFFF" opacity="0.6" mask="url(#mask-2)" transform="translate(10.652552, 7.029764) scale(-1, 1) rotate(35.000000) translate(-10.652552, -7.029764) " cx="10.6525516" cy="7.02976381" rx="7" ry="2.5"></ellipse>
            </g>
        </g>
        <g id="note-2" filter="url(#filter-3)" transform="translate(10.000000, 10.000000)">
            <g id="note">
                <rect id="Rectangle" fill="#FFFFFF" x="2" y="0" width="18" height="20" rx="1"></rect>
                <rect id="Rectangle" fill="#009ADB" x="8" y="5" width="8" height="2" rx="1"></rect>
                <rect id="Rectangle-Copy-4" fill="#009ADB" x="8" y="9" width="8" height="2" rx="1"></rect>
                <rect id="Rectangle-Copy-13" fill="#009ADB" x="8" y="13" width="8" height="2" rx="1"></rect>
                <rect id="Rectangle" fill="#009ADB" x="0" y="5" width="6" height="2" rx="1"></rect>
                <rect id="Rectangle-Copy-4" fill="#009ADB" x="0" y="9" width="6" height="2" rx="1"></rect>
                <rect id="Rectangle-Copy-13" fill="#009ADB" x="0" y="13" width="6" height="2" rx="1"></rect>
            </g>
        </g>
    </g>
</svg>