<?xml version="1.0" encoding="UTF-8"?>
<svg width="24px" height="24px" viewBox="0 0 24 24" version="1.1" xmlns="http://www.w3.org/2000/svg" xmlns:xlink="http://www.w3.org/1999/xlink">
    <title>Icon/common/share_1</title>
    <g id="Icon/common/share_1" stroke="none" stroke-width="1" fill="none" fill-rule="evenodd">
        <path d="M17.8098,17.6693 C17.9668,17.6253 18.1248,17.6043 18.2808,17.6043 C19.0318,17.6043 19.7228,18.0943 19.9358,18.8423 C20.0598,19.2743 20.0058,19.7293 19.7868,20.1223 C19.5628,20.5223 19.1958,20.8113 18.7498,20.9353 C17.8398,21.1923 16.8828,20.6663 16.6258,19.7633 L16.6258,19.7623 C16.5018,19.3303 16.5558,18.8753 16.7758,18.4813 C16.9978,18.0823 17.3668,17.7943 17.8098,17.6693 M6.1928,13.6333 C5.2758,13.8913 4.3238,13.3633 4.0668,12.4603 L4.0668,12.4603 C3.9428,12.0273 3.9968,11.5733 4.2158,11.1803 C4.4388,10.7803 4.8068,10.4913 5.2508,10.3663 C5.4088,10.3223 5.5668,10.3013 5.7218,10.3013 C6.4728,10.3013 7.1638,10.7913 7.3758,11.5403 C7.4998,11.9723 7.4468,12.4273 7.2268,12.8203 C7.0038,13.2193 6.6358,13.5083 6.1928,13.6333 M16.7758,3.8763 C16.9978,3.4773 17.3668,3.1893 17.8108,3.0643 C17.9678,3.0203 18.1258,2.9993 18.2818,2.9993 C19.0328,2.9993 19.7228,3.4883 19.9358,4.2373 C20.0598,4.6693 20.0058,5.1243 19.7868,5.5173 C19.5638,5.9173 19.1958,6.2053 18.7508,6.3303 C17.8338,6.5873 16.8828,6.0613 16.6258,5.1573 L16.6258,5.1573 C16.5018,4.7243 16.5558,4.2703 16.7758,3.8763 M4.7108,8.4403 C3.7498,8.7113 2.9548,9.3363 2.4698,10.2043 C1.9888,11.0653 1.8718,12.0613 2.1428,13.0083 C2.6068,14.6333 4.1018,15.6983 5.7238,15.6983 C6.0568,15.6983 6.3958,15.6533 6.7328,15.5593 C7.3948,15.3733 7.9698,15.0073 8.4268,14.5213 L14.7068,18.3123 C14.5248,18.9613 14.5128,19.6473 14.7028,20.3113 C15.1648,21.9363 16.6608,23.0013 18.2818,23.0013 C18.6158,23.0013 18.9548,22.9553 19.2898,22.8613 C20.2508,22.5913 21.0468,21.9653 21.5328,21.0983 C22.0138,20.2373 22.1298,19.2413 21.8598,18.2943 C21.3008,16.3353 19.2478,15.1903 17.2698,15.7433 C16.6908,15.9063 16.1818,16.2113 15.7548,16.6093 L9.3498,12.7423 C9.4688,12.1673 9.4658,11.5713 9.2998,10.9913 C9.2958,10.9783 9.2888,10.9673 9.2858,10.9553 L15.7388,7.3823 C16.4208,8.0183 17.3268,8.3953 18.2828,8.3953 C18.6168,8.3953 18.9558,8.3503 19.2908,8.2563 C20.2518,7.9863 21.0478,7.3603 21.5328,6.4923 C22.0138,5.6313 22.1298,4.6363 21.8598,3.6893 C21.3008,1.7283 19.2368,0.5873 17.2708,1.1383 C16.3098,1.4083 15.5138,2.0333 15.0298,2.9003 C14.5538,3.7523 14.4378,4.7353 14.6968,5.6723 L8.2078,9.2653 C7.2888,8.4423 5.9838,8.0843 4.7108,8.4403" id="Fill-1" fill="#000000"></path>
    </g>
</svg>