<?xml version="1.0" encoding="UTF-8"?>
<svg width="20px" height="20px" viewBox="0 0 20 20" version="1.1" xmlns="http://www.w3.org/2000/svg" xmlns:xlink="http://www.w3.org/1999/xlink">
    <!-- Generator: Sketch 63.1 (92452) - https://sketch.com -->
    <title>Icon/system/cancel</title>
    <desc>Created with Sketch.</desc>
    <g id="Icon/system/cancel" stroke="none" stroke-width="1" fill="none" fill-rule="evenodd">
        <path d="M10,0 C10.5522847,-1.01453063e-16 11,0.44771525 11,1 L11,9 L19,9 C19.5522847,9 20,9.44771525 20,10 C20,10.5522847 19.5522847,11 19,11 L11,11 L11,19 C11,19.5522847 10.5522847,20 10,20 C9.44771525,20 9,19.5522847 9,19 L9,10.999 L1,11 C0.44771525,11 0,10.5522847 0,10 C0,9.44771525 0.44771525,9 1,9 L9,8.999 L9,1 C9,0.44771525 9.44771525,1.01453063e-16 10,0 Z" id="Combined-Shape" fill="#7B7671" transform="translate(10.000000, 10.000000) rotate(45.000000) translate(-10.000000, -10.000000) "></path>
    </g>
</svg>