<?xml version="1.0" encoding="UTF-8"?>
<svg width="20px" height="20px" viewBox="0 0 20 20" version="1.1" xmlns="http://www.w3.org/2000/svg" xmlns:xlink="http://www.w3.org/1999/xlink">
    <!-- Generator: Sketch 63.1 (92452) - https://sketch.com -->
    <title>Icon/system/minimize</title>
    <desc>Created with Sketch.</desc>
    <g id="Icon/system/minimize" stroke="none" stroke-width="1" fill="none" fill-rule="evenodd">
        <path d="M8,11 C8.55228475,11 9,11.4477153 9,12 L9,17.1534165 C9,17.7057013 8.55228475,18.1534165 8,18.1534165 L7.95616671,18.1534165 C7.40388196,18.1534165 6.95616671,17.7057013 6.95616671,17.1534165 L6.957,14.489 L2.72902343,18.716185 C2.33849914,19.1067092 1.70533416,19.1067092 1.31480987,18.716185 L1.28381505,18.6851901 C0.893290755,18.2946658 0.893290755,17.6615009 1.28381505,17.2709766 L5.512,13.044 L2.84658347,13.0438333 C2.29429872,13.0438333 1.84658347,12.596118 1.84658347,12.0438333 L1.84658347,12 C1.84658347,11.4477153 2.29429872,11 2.84658347,11 L8,11 Z M18.676112,1.29289322 L18.7071068,1.32388804 C19.0976311,1.71441233 19.0976311,2.34757731 18.7071068,2.7381016 L14.4789218,6.965 L17.1443384,6.96524488 C17.6966231,6.96524488 18.1443384,7.41296013 18.1443384,7.96524488 L18.1443384,8.00907817 C18.1443384,8.56136292 17.6966231,9.00907817 17.1443384,9.00907817 L11.9909218,9.00907817 C11.4386371,9.00907817 10.9909218,8.56136292 10.9909218,8.00907817 L10.9909218,2.85566164 C10.9909218,2.30337689 11.4386371,1.85566164 11.9909218,1.85566164 L12.0347551,1.85566164 C12.5870399,1.85566164 13.0347551,2.30337689 13.0347551,2.85566164 L13.0339218,5.52 L17.2618984,1.29289322 C17.6524227,0.902368927 18.2855877,0.902368927 18.676112,1.29289322 Z" id="Shape" fill="#7B7671"></path>
    </g>
</svg>