<?xml version="1.0" encoding="UTF-8"?>
<svg width="20px" height="20px" viewBox="0 0 20 20" version="1.1" xmlns="http://www.w3.org/2000/svg" xmlns:xlink="http://www.w3.org/1999/xlink">
    <!-- Generator: Sketch 63.1 (92452) - https://sketch.com -->
    <title>Icon/system/maximize</title>
    <desc>Created with Sketch.</desc>
    <g id="Icon/system/maximize" stroke="none" stroke-width="1" fill="none" fill-rule="evenodd">
        <path d="M8.68519013,11.283815 L8.71618495,11.3148099 C9.10670925,11.7053342 9.10670925,12.3384991 8.71618495,12.7290234 L4.488,16.956 L7.15341653,16.9561667 C7.70570128,16.9561667 8.15341653,17.403882 8.15341653,17.9561667 L8.15341653,18 C8.15341653,18.5522847 7.70570128,19 7.15341653,19 L2,19 C1.44771525,19 1,18.5522847 1,18 L1,12.8465835 C1,12.2942987 1.44771525,11.8465835 2,11.8465835 L2.04383329,11.8465835 C2.59611804,11.8465835 3.04383329,12.2942987 3.04383329,12.8465835 L3.043,15.511 L7.27097657,11.283815 C7.66150086,10.8932908 8.29466584,10.8932908 8.68519013,11.283815 Z M18,1 C18.5522847,1 19,1.44771525 19,2 L19,7.15341653 C19,7.70570128 18.5522847,8.15341653 18,8.15341653 L17.9561667,8.15341653 C17.403882,8.15341653 16.9561667,7.70570128 16.9561667,7.15341653 L16.957,4.489 L12.7290234,8.71618495 C12.3384991,9.10670925 11.7053342,9.10670925 11.3148099,8.71618495 L11.283815,8.68519013 C10.8932908,8.29466584 10.8932908,7.66150086 11.283815,7.27097657 L15.512,3.044 L12.8465835,3.04383329 C12.2942987,3.04383329 11.8465835,2.59611804 11.8465835,2.04383329 L11.8465835,2 C11.8465835,1.44771525 12.2942987,1 12.8465835,1 L18,1 Z" id="Shape" fill="#7B7671"></path>
    </g>
</svg>