<?xml version="1.0" encoding="UTF-8"?>
<svg width="24px" height="24px" viewBox="0 0 24 24" version="1.1" xmlns="http://www.w3.org/2000/svg" xmlns:xlink="http://www.w3.org/1999/xlink">
    <title>Icon/attachment/txt</title>
    <g id="Icon/attachment/txt" stroke="none" stroke-width="1" fill="none" fill-rule="evenodd">
        <path d="M13.8167,1 C14.8607,1 15.8477,1.4 16.5967,2.127 L16.5967,2.127 L21.7887,7.168 C22.5587,7.915 22.9997,8.959 22.9997,10.031 L22.9997,10.031 L22.9997,17.014 C22.9997,20.314 20.3147,23 17.0137,23 L17.0137,23 L6.9867,23 C3.6857,23 0.9997,20.314 0.9997,17.014 L0.9997,17.014 L0.9997,6.986 C0.9997,3.686 3.6857,1 6.9867,1 L6.9867,1 Z M13.8177,3 L6.9867,3 C4.7877,3 2.9997,4.788 2.9997,6.986 L2.9997,6.986 L2.9997,17.014 C2.9997,19.212 4.7877,21 6.9867,21 L6.9867,21 L17.0137,21 C19.2117,21 20.9997,19.212 20.9997,17.014 L20.9997,17.014 L20.9997,10.113 L17.2657,10.058 C15.3647,10.029 13.8177,8.459 13.8177,6.558 L13.8177,6.558 L13.8177,3 Z M8.714,12.3631 C8.811,12.3631 8.905,12.3821 8.995,12.4201 C9.086,12.4591 9.164,12.5131 9.23,12.5801 C9.293,12.6441 9.344,12.7211 9.382,12.8081 C9.421,12.9001 9.441,12.9951 9.441,13.0931 C9.441,13.1931 9.421,13.2891 9.383,13.3791 C9.344,13.4661 9.292,13.5421 9.226,13.6061 C9.159,13.6721 9.08,13.7231 8.992,13.7591 C8.902,13.7941 8.809,13.8121 8.714,13.8121 L8.714,13.8121 L8.073,13.8121 L8.073,16.9181 C8.073,17.0191 8.053,17.1151 8.014,17.2041 C7.977,17.2911 7.922,17.3691 7.853,17.4341 C7.784,17.4991 7.706,17.5481 7.62,17.5831 C7.535,17.6181 7.441,17.6371 7.343,17.6371 C7.244,17.6371 7.149,17.6171 7.063,17.5801 C6.98,17.5461 6.904,17.4941 6.839,17.4291 C6.773,17.3601 6.724,17.2821 6.689,17.1941 C6.656,17.1111 6.638,17.0171 6.638,16.9181 L6.638,16.9181 L6.638,13.8121 L5.979,13.8121 C5.877,13.8121 5.78,13.7921 5.691,13.7531 C5.609,13.7181 5.532,13.6661 5.465,13.6001 C5.4,13.5341 5.348,13.4571 5.311,13.3701 C5.274,13.2811 5.256,13.1851 5.256,13.0861 C5.256,12.9881 5.274,12.8941 5.311,12.8081 C5.347,12.7211 5.399,12.6421 5.465,12.5761 C5.53,12.5111 5.606,12.4591 5.692,12.4221 C5.783,12.3831 5.879,12.3631 5.979,12.3631 L5.979,12.3631 Z M18.0182,12.3631 C18.1152,12.3631 18.2092,12.3831 18.2992,12.4201 C18.3892,12.4591 18.4672,12.5131 18.5332,12.5801 C18.5972,12.6451 18.6482,12.7231 18.6862,12.8091 C18.7242,12.9001 18.7442,12.9951 18.7442,13.0931 C18.7442,13.1931 18.7242,13.2891 18.6862,13.3791 C18.6492,13.4651 18.5962,13.5411 18.5292,13.6061 C18.4622,13.6721 18.3832,13.7231 18.2952,13.7591 C18.2062,13.7941 18.1132,13.8121 18.0182,13.8121 L18.0182,13.8121 L17.3762,13.8121 L17.3762,16.9181 C17.3762,17.0201 17.3562,17.1181 17.3162,17.2061 C17.2802,17.2911 17.2262,17.3681 17.1582,17.4341 C17.0862,17.4991 17.0092,17.5491 16.9232,17.5831 C16.8392,17.6181 16.7452,17.6371 16.6462,17.6371 C16.5472,17.6371 16.4522,17.6171 16.3662,17.5801 C16.2832,17.5461 16.2072,17.4941 16.1422,17.4291 C16.0762,17.3601 16.0272,17.2821 15.9922,17.1941 C15.9592,17.1111 15.9412,17.0171 15.9412,16.9181 L15.9412,16.9181 L15.9412,13.8121 L15.2822,13.8121 C15.1802,13.8121 15.0832,13.7921 14.9942,13.7531 C14.9112,13.7181 14.8342,13.6651 14.7682,13.6001 C14.7032,13.5351 14.6522,13.4571 14.6152,13.3701 C14.5772,13.2801 14.5592,13.1841 14.5592,13.0861 C14.5592,12.9891 14.5772,12.8951 14.6142,12.8081 C14.6512,12.7201 14.7022,12.6421 14.7682,12.5761 C14.8332,12.5121 14.9082,12.4601 14.9942,12.4221 C15.0862,12.3831 15.1822,12.3631 15.2822,12.3631 L15.2822,12.3631 Z M12.9711,12.43 C13.1611,12.34 13.3761,12.343 13.5551,12.425 C13.6401,12.463 13.7161,12.516 13.7811,12.58 C13.8471,12.646 13.8991,12.724 13.9351,12.812 C13.9721,12.896 13.9901,12.99 13.9901,13.086 C13.9901,13.169 13.9771,13.252 13.9521,13.333 C13.9271,13.415 13.8871,13.494 13.8351,13.565 L13.8351,13.565 L12.8391,15.011 L13.8331,16.408 C13.8841,16.479 13.9221,16.557 13.9491,16.639 C13.9731,16.719 13.9871,16.801 13.9871,16.882 C13.9871,16.981 13.9661,17.078 13.9251,17.169 C13.8861,17.254 13.8301,17.331 13.7601,17.396 C13.6961,17.456 13.6191,17.506 13.5341,17.543 C13.4391,17.584 13.3361,17.603 13.2221,17.6020375 C13.1351,17.6020375 13.0411,17.579 12.9531,17.536 C12.8601,17.49 12.7811,17.423 12.7161,17.335 L12.7161,17.335 L11.9541,16.265 L11.1981,17.331 C11.1311,17.425 11.0481,17.494 10.9521,17.538 C10.7721,17.62 10.5521,17.618 10.3731,17.544 C10.2851,17.506 10.2061,17.454 10.1391,17.39 C10.0691,17.319 10.0151,17.242 9.9771,17.156 C9.9371,17.067 9.9161,16.971 9.9161,16.871 C9.9121,16.793 9.9271,16.704 9.9601,16.619 C9.9881,16.548 10.0261,16.478 10.0711,16.411 L10.0711,16.411 L11.0651,15.011 L10.0681,13.561 C10.0201,13.493 9.9801,13.416 9.9531,13.333 C9.9271,13.25 9.9131,13.167 9.9131,13.086 C9.9131,12.987 9.9331,12.893 9.9731,12.805 C10.0091,12.722 10.0621,12.645 10.1291,12.578 C10.1961,12.514 10.2721,12.462 10.3561,12.425 C10.4461,12.384 10.5421,12.3629978 10.6421,12.3629978 C10.7471,12.366 10.8431,12.388 10.9331,12.427 C11.0351,12.471 11.1211,12.541 11.1891,12.635 L11.1891,12.635 L11.9541,13.714 L12.7201,12.637 C12.7891,12.544 12.8721,12.476 12.9711,12.43 Z M15.8177,4.159 L15.8177,6.558 C15.8177,7.372 16.4807,8.046 17.2957,8.058 L17.2957,8.058 L19.8727,8.096 L15.8177,4.159 Z" id="Combined-Shape" fill="#FF5AA3"></path>
    </g>
</svg>