<?xml version="1.0" encoding="UTF-8"?>
<svg width="24px" height="24px" viewBox="0 0 24 24" version="1.1" xmlns="http://www.w3.org/2000/svg" xmlns:xlink="http://www.w3.org/1999/xlink">
    <title>Icon/attachment/word</title>
    <g id="Icon/attachment/word" stroke="none" stroke-width="1" fill="none" fill-rule="evenodd">
        <path d="M17,1.0004 C20.309,1.0004 23,3.6914 23,7.0004 L23,7.0004 L23,17.0004 C23,20.3084 20.309,23.0004 17,23.0004 L17,23.0004 L13.455,23.0004 C12.902,23.0004 12.455,22.5524 12.455,22.0004 C12.455,21.4474 12.902,21.0004 13.455,21.0004 L13.455,21.0004 L17,21.0004 C19.206,21.0004 21,19.2054 21,17.0004 L21,17.0004 L21,7.0004 C21,4.7944 19.206,3.0004 17,3.0004 L17,3.0004 L7,3.0004 C4.794,3.0004 3,4.7944 3,7.0004 L3,7.0004 L3,11.5454 C3,12.0974 2.552,12.5454 2,12.5454 C1.448,12.5454 1,12.0974 1,11.5454 L1,11.5454 L1,7.0004 C1,3.6914 3.691,1.0004 7,1.0004 L7,1.0004 Z M11.2614,13.6339 C11.5514,13.6339 11.8014,13.7319 12.0044,13.9259 C12.2124,14.1229 12.3174,14.3719 12.3174,14.6669 C12.3174,14.8479 12.2734,15.1169 12.1814,15.4919 L12.1814,15.4919 L10.7524,21.2759 C10.6524,21.6719 10.5684,21.9689 10.5024,22.1559 C10.4234,22.3769 10.2904,22.5709 10.1064,22.7339 C9.9064,22.9109 9.6334,22.9999 9.2924,22.9999 C8.9694,22.9999 8.7034,22.9139 8.4994,22.7449 C8.3084,22.5859 8.1714,22.4009 8.0934,22.1959 C8.0274,22.0219 7.9404,21.7369 7.8234,21.3239 L7.8234,21.3239 L6.6664,17.0309 L5.4944,21.3219 C5.3804,21.7279 5.2934,22.0099 5.2264,22.1849 C5.1474,22.3929 5.0104,22.5809 4.8194,22.7409 C4.6154,22.9129 4.3484,22.9999 4.0244,22.9999 C3.7684,22.9999 3.5484,22.9489 3.3744,22.8469 C3.1994,22.7469 3.0574,22.6039 2.9494,22.4209 C2.8534,22.2569 2.7734,22.0619 2.7134,21.8399 C2.6584,21.6369 2.6094,21.4489 2.5654,21.2759 L2.5654,21.2759 L1.1354,15.4919 C1.0444,15.1349 1.0004,14.8649 1.0004,14.6669 C1.0004,14.3779 1.1034,14.1299 1.3074,13.9309 C1.5094,13.7339 1.7614,13.6339 2.0564,13.6339 C2.4664,13.6339 2.7534,13.7789 2.9074,14.0659 C3.0294,14.2919 3.1314,14.6029 3.2184,15.0149 L3.2184,15.0149 L4.1274,19.0699 L5.1334,15.3249 C5.2284,14.9619 5.3154,14.6759 5.3934,14.4779 C5.4834,14.2519 5.6294,14.0549 5.8294,13.8929 C6.0404,13.7209 6.3224,13.6339 6.6674,13.6339 C7.0204,13.6339 7.3034,13.7259 7.5094,13.9079 C7.7014,14.0769 7.8374,14.2659 7.9134,14.4709 C7.9804,14.6499 8.0644,14.9289 8.1724,15.3239 L8.1724,15.3239 L9.1884,19.0749 L10.0994,15.0119 C10.1564,14.7419 10.2104,14.5269 10.2604,14.3739 C10.3214,14.1899 10.4264,14.0239 10.5724,13.8789 C10.7384,13.7159 10.9704,13.6339 11.2614,13.6339 Z M17.5,13.937 C18.052,13.937 18.5,14.385 18.5,14.937 C18.5,15.489 18.052,15.937 17.5,15.937 L17.5,15.937 L15,15.937 C14.448,15.937 14,15.489 14,14.937 C14,14.385 14.448,13.937 15,13.937 L15,13.937 Z M17.5,10 C18.052,10 18.5,10.448 18.5,11 C18.5,11.552 18.052,12 17.5,12 L17.5,12 L6.5,12 C5.948,12 5.5,11.552 5.5,11 C5.5,10.448 5.948,10 6.5,10 L6.5,10 Z M17.5,6.063 C18.052,6.063 18.5,6.511 18.5,7.063 C18.5,7.615 18.052,8.063 17.5,8.063 L17.5,8.063 L6.5,8.063 C5.948,8.063 5.5,7.615 5.5,7.063 C5.5,6.511 5.948,6.063 6.5,6.063 L6.5,6.063 Z" id="Combined-Shape" fill="#439BED"></path>
    </g>
</svg>