<?xml version="1.0" encoding="UTF-8"?>
<svg width="24px" height="24px" viewBox="0 0 24 24" version="1.1" xmlns="http://www.w3.org/2000/svg" xmlns:xlink="http://www.w3.org/1999/xlink">
    <title>Icon/attachment/zip</title>
    <g id="Icon/attachment/zip" stroke="none" stroke-width="1" fill="none" fill-rule="evenodd">
        <path d="M17.014,0.9997 C20.314,0.9997 23,3.6857 23,6.9867 L23,6.9867 L23,17.0137 C23,20.3147 20.314,22.9997 17.014,22.9997 L17.014,22.9997 L6.986,22.9997 C3.686,22.9997 1,20.3147 1,17.0137 L1,17.0137 L1,6.9867 C1,3.6857 3.686,0.9997 6.986,0.9997 L6.986,0.9997 Z M10.92,2.9997 L6.986,2.9997 C4.788,2.9997 3,4.7877 3,6.9867 L3,6.9867 L3,17.0137 C3,19.2117 4.788,20.9997 6.986,20.9997 L6.986,20.9997 L17.014,20.9997 C19.212,20.9997 21,19.2117 21,17.0137 L21,17.0137 L21,6.9867 C21,4.7877 19.212,2.9997 17.014,2.9997 L17.014,2.9997 L13.08,2.9997 C13.083,3.0347 13.1,3.0647 13.1,3.0997 C13.1,3.7067 12.607,4.2007 12,4.2007 C11.393,4.2007 10.9,3.7067 10.9,3.0997 C10.9,3.0647 10.917,3.0347 10.92,2.9997 L10.92,2.9997 Z M12,12.223 C13.697,12.223 15.077,13.604 15.077,15.3 C15.077,16.996 13.697,18.377 12,18.377 C10.303,18.377 8.923,16.996 8.923,15.3 C8.923,13.604 10.303,12.223 12,12.223 Z M12,14.223 C11.406,14.223 10.923,14.706 10.923,15.3 C10.923,15.894 11.406,16.377 12,16.377 C12.594,16.377 13.077,15.894 13.077,15.3 C13.077,14.706 12.594,14.223 12,14.223 Z M12,8.6672 C12.607,8.6672 13.1,9.1592 13.1,9.7662 C13.1,10.3742 12.607,10.8662 12,10.8662 C11.393,10.8662 10.9,10.3742 10.9,9.7662 C10.9,9.1592 11.393,8.6672 12,8.6672 Z M12,5.3332 C12.607,5.3332 13.1,5.8262 13.1,6.4332 C13.1,7.0412 12.607,7.5332 12,7.5332 C11.393,7.5332 10.9,7.0412 10.9,6.4332 C10.9,5.8262 11.393,5.3332 12,5.3332 Z" id="Combined-Shape" fill="#FF9124"></path>
    </g>
</svg>